<?xml version="1.0" encoding="UTF-8"?>
<svg width="1400px" height="910px" viewBox="0 0 1400 910" version="1.1" xmlns="http://www.w3.org/2000/svg" xmlns:xlink="http://www.w3.org/1999/xlink">
    <!-- Generator: Sketch 57.1 (83088) - https://sketch.com -->
    <title>card</title>
    <desc>Created with Sketch.</desc>
    <g id="card" stroke="none" stroke-width="1" fill="none" fill-rule="evenodd">
        <path d="M20,90.9939201 C20,49.5759217 53.5697307,16 94.9989448,16 L1305.60945,16 C1347.03022,16 1380.60839,49.5815337 1380.60839,90.9939201 L1380.60839,816.44173 C1380.60839,857.859728 1347.03866,891.43565 1305.60945,891.43565 L94.9989448,891.43565 C53.5781713,891.43565 20,857.854116 20,816.44173 L20,90.9939201 Z" id="Rectangle-1-Copy" stroke="#FFFFFF" fill="#FF3F34"></path>
        <g id="Group-5" transform="translate(143.304196, 107.717825)">
            <g id="Group-3" transform="translate(855.000000, 476.000000)">
                <path d="M252.46531,209.725561 L252.46531,210.252799 L252.94468,210.252799 C253.050647,210.252799 253.141475,210.227205 253.207073,210.186254 C253.267625,210.145303 253.302948,210.073641 253.302948,209.986621 C253.302948,209.899601 253.267625,209.833056 253.207073,209.792105 C253.141475,209.746036 253.050647,209.725561 252.94468,209.725561 L252.46531,209.725561 L252.46531,209.725561 Z M252.949726,209.357007 C253.196981,209.357007 253.388729,209.413314 253.524972,209.525928 C253.661214,209.638541 253.726812,209.792105 253.726812,209.986621 C253.726812,210.150422 253.676353,210.283511 253.56534,210.391006 C253.459374,210.493383 253.307993,210.559927 253.106153,210.585521 L253.741951,211.327748 L253.247441,211.327748 L252.657058,210.590639 L252.46531,210.590639 L252.46531,211.327748 L252.051536,211.327748 L252.051536,209.357007 L252.949726,209.357007 L252.949726,209.357007 Z M252.823576,212.008549 C253.050647,212.008549 253.262579,211.96248 253.454328,211.87546 C253.651122,211.78844 253.822686,211.670708 253.969021,211.522262 C254.115355,211.373817 254.231413,211.199778 254.317196,210.995025 C254.397932,210.795392 254.443346,210.580402 254.443346,210.350056 C254.443346,210.11971 254.397932,209.904719 254.317196,209.705086 C254.231413,209.505452 254.115355,209.326294 253.969021,209.177849 C253.822686,209.029404 253.651122,208.911671 253.454328,208.824651 C253.262579,208.742751 253.050647,208.7018 252.823576,208.7018 C252.596506,208.7018 252.379527,208.742751 252.182733,208.824651 C251.980892,208.911671 251.804282,209.029404 251.657947,209.177849 C251.511613,209.326294 251.395555,209.505452 251.314819,209.705086 C251.229037,209.904719 251.188669,210.11971 251.188669,210.350056 C251.188669,210.580402 251.229037,210.795392 251.314819,210.995025 C251.395555,211.199778 251.511613,211.373817 251.657947,211.522262 C251.804282,211.670708 251.980892,211.78844 252.182733,211.87546 C252.379527,211.96248 252.596506,212.008549 252.823576,212.008549 L252.823576,212.008549 L252.823576,212.008549 Z M252.823576,208.225751 C253.121291,208.225751 253.393775,208.282058 253.656168,208.394671 C253.913515,208.502167 254.135539,208.655731 254.332334,208.850246 C254.524082,209.039641 254.675462,209.264869 254.786475,209.525928 C254.897487,209.781868 254.952993,210.058283 254.952993,210.350056 C254.952993,210.641828 254.897487,210.918243 254.786475,211.174183 C254.675462,211.430124 254.524082,211.655351 254.332334,211.849866 C254.135539,212.039262 253.913515,212.192826 253.656168,212.30544 C253.393775,212.418053 253.121291,212.47436 252.823576,212.47436 C252.520816,212.47436 252.243285,212.418053 251.980892,212.30544 C251.718499,212.192826 251.491429,212.039262 251.299681,211.849866 C251.107932,211.655351 250.956552,211.430124 250.84554,211.174183 C250.734528,210.918243 250.679022,210.641828 250.679022,210.350056 C250.679022,210.058283 250.734528,209.781868 250.84554,209.525928 C250.956552,209.264869 251.107932,209.039641 251.299681,208.850246 C251.491429,208.655731 251.718499,208.502167 251.980892,208.394671 C252.243285,208.282058 252.520816,208.225751 252.823576,208.225751 L252.823576,208.225751 L252.823576,208.225751 Z M56.2259162,200.634561 C56.2259162,196.877358 58.6530478,193.790718 62.619213,193.790718 C66.4087677,193.790718 68.9670956,196.744269 68.9670956,200.634561 C68.9670956,204.524854 66.4087677,207.478406 62.619213,207.478406 C58.6530478,207.478406 56.2259162,204.391766 56.2259162,200.634561 L56.2259162,200.634561 L56.2259162,200.634561 Z M73.2864818,200.634561 L73.2864818,189.946494 L68.704703,189.946494 L68.704703,192.541729 C67.2514517,190.617058 65.0463445,189.409019 62.0490137,189.409019 C56.140134,189.409019 51.5078953,194.108083 51.5078953,200.634561 C51.5078953,207.166159 56.140134,211.860103 62.0490137,211.860103 C65.0463445,211.860103 67.2514517,210.652065 68.704703,208.727394 L68.704703,211.322629 L73.2864818,211.322629 L73.2864818,200.634561 L73.2864818,200.634561 Z M228.118303,200.634561 C228.118303,196.877358 230.545435,193.790718 234.5116,193.790718 C238.306201,193.790718 240.859482,196.744269 240.859482,200.634561 C240.859482,204.524854 238.306201,207.478406 234.5116,207.478406 C230.545435,207.478406 228.118303,204.391766 228.118303,200.634561 L228.118303,200.634561 L228.118303,200.634561 Z M245.183915,200.634561 L245.183915,181.362256 L240.59709,181.362256 L240.59709,192.541729 C239.143839,190.617058 236.938732,189.409019 233.9414,189.409019 C228.032521,189.409019 223.400282,194.108083 223.400282,200.634561 C223.400282,207.166159 228.032521,211.860103 233.9414,211.860103 C236.938732,211.860103 239.143839,210.652065 240.59709,208.727394 L240.59709,211.322629 L245.183915,211.322629 L245.183915,200.634561 L245.183915,200.634561 Z M130.160079,193.570609 C133.111996,193.570609 135.009296,195.449211 135.493713,198.75596 L124.559006,198.75596 C125.048469,195.66932 126.895309,193.570609 130.160079,193.570609 L130.160079,193.570609 L130.160079,193.570609 Z M130.250907,189.409019 C124.074589,189.409019 119.755203,193.969876 119.755203,200.634561 C119.755203,207.432336 124.2512,211.860103 130.558714,211.860103 C133.732655,211.860103 136.639158,211.056451 139.197486,208.865602 L136.95201,205.420645 C135.185907,206.848792 132.935385,207.657564 130.821106,207.657564 C127.869189,207.657564 125.179665,206.270367 124.518638,202.421025 L140.16632,202.421025 C140.211734,201.8426 140.257148,201.259056 140.257148,200.634561 C140.211734,193.969876 136.154741,189.409019 130.250907,189.409019 L130.250907,189.409019 L130.250907,189.409019 Z M185.575379,200.634561 C185.575379,196.877358 188.002511,193.790718 191.968676,193.790718 C195.758231,193.790718 198.316558,196.744269 198.316558,200.634561 C198.316558,204.524854 195.758231,207.478406 191.968676,207.478406 C188.002511,207.478406 185.575379,204.391766 185.575379,200.634561 L185.575379,200.634561 L185.575379,200.634561 Z M202.635944,200.634561 L202.635944,189.946494 L198.054166,189.946494 L198.054166,192.541729 C196.595868,190.617058 194.395808,189.409019 191.398477,189.409019 C185.489597,189.409019 180.857358,194.108083 180.857358,200.634561 C180.857358,207.166159 185.489597,211.860103 191.398477,211.860103 C194.395808,211.860103 196.595868,210.652065 198.054166,208.727394 L198.054166,211.322629 L202.635944,211.322629 L202.635944,200.634561 L202.635944,200.634561 Z M159.699431,200.634561 C159.699431,207.120089 164.150014,211.860103 170.941945,211.860103 C174.115887,211.860103 176.230165,211.14347 178.521055,209.310938 L176.320994,205.553734 C174.600303,206.807842 172.793832,207.478406 170.805703,207.478406 C167.147344,207.432336 164.45782,204.750082 164.45782,200.634561 C164.45782,196.519042 167.147344,193.836787 170.805703,193.790718 C172.793832,193.790718 174.600303,194.461281 176.320994,195.715389 L178.521055,191.958185 C176.230165,190.125653 174.115887,189.409019 170.941945,189.409019 C164.150014,189.409019 159.699431,194.149034 159.699431,200.634561 L159.699431,200.634561 L159.699431,200.634561 Z M218.77309,189.409019 C216.12898,189.409019 214.40829,190.663127 213.217431,192.541729 L213.217431,189.946494 L208.67602,189.946494 L208.67602,211.322629 L213.262845,211.322629 L213.262845,199.339503 C213.262845,195.802409 214.76151,193.836787 217.758841,193.836787 C218.687308,193.836787 219.656142,193.969876 220.624976,194.374261 L222.037859,189.992564 C221.023611,189.588178 219.701556,189.409019 218.77309,189.409019 L218.77309,189.409019 L218.77309,189.409019 Z M95.9481196,191.645938 C93.7430129,190.171722 90.7053136,189.409019 87.3547619,189.409019 C82.0160815,189.409019 78.579748,192.004254 78.579748,196.252864 C78.579748,199.73877 81.138076,201.888669 85.8510504,202.559232 L88.0157895,202.87148 C90.5287033,203.229796 91.7145165,203.90036 91.7145165,205.108398 C91.7145165,206.761773 90.03924,207.703633 86.9107129,207.703633 C83.7367715,207.703633 81.4458823,206.674753 79.9018025,205.466714 L77.7421101,209.08571 C80.2550238,210.964312 83.4289652,211.860103 86.8652986,211.860103 C92.9507892,211.860103 96.4779512,208.952621 96.4779512,204.883171 C96.4779512,201.125967 93.7026446,199.160345 89.1158203,198.489782 L86.9561271,198.172416 C84.973045,197.906238 83.3835509,197.506971 83.3835509,196.073706 C83.3835509,194.50735 84.8822165,193.570609 87.3951302,193.570609 C90.0846542,193.570609 92.6883964,194.599489 93.9650374,195.403142 L95.9481196,191.645938 L95.9481196,191.645938 Z M155.067193,189.409019 C152.423082,189.409019 150.702392,190.663127 149.51658,192.541729 L149.51658,189.946494 L144.975169,189.946494 L144.975169,211.322629 L149.556948,211.322629 L149.556948,199.339503 C149.556948,195.802409 151.055614,193.836787 154.052944,193.836787 C154.98141,193.836787 155.950244,193.969876 156.919079,194.374261 L158.331962,189.992564 C157.317714,189.588178 155.995658,189.409019 155.067193,189.409019 L155.067193,189.409019 L155.067193,189.409019 Z M115.965648,189.946494 L108.472321,189.946494 L108.472321,183.460967 L103.840082,183.460967 L103.840082,189.946494 L99.56611,189.946494 L99.56611,194.195103 L103.840082,194.195103 L103.840082,203.946429 C103.840082,208.906552 105.737382,211.860103 111.156799,211.860103 C113.144928,211.860103 115.435817,211.235609 116.889068,210.206729 L115.567014,206.224298 C114.199544,207.027951 112.700879,207.432336 111.51002,207.432336 C109.219131,207.432336 108.472321,205.99907 108.472321,203.854291 L108.472321,194.195103 L115.965648,194.195103 L115.965648,189.946494 L115.965648,189.946494 Z M47.4559479,211.322629 L47.4559479,197.906238 C47.4559479,192.853976 44.2820067,189.455089 39.1653508,189.409019 C36.4758266,189.36295 33.7005202,190.212672 31.7578057,193.212293 C30.3045544,190.842285 28.0136651,189.409019 24.7943096,189.409019 C22.5437884,189.409019 20.3437273,190.079583 18.6230373,192.582679 L18.6230373,189.946494 L14.0362128,189.946494 L14.0362128,211.322629 L18.6634054,211.322629 L18.6634054,199.472592 C18.6634054,195.761458 20.6919021,193.790718 23.8254754,193.790718 C26.8682204,193.790718 28.4072539,195.802409 28.4072539,199.426523 L28.4072539,211.322629 L33.0394927,211.322629 L33.0394927,199.472592 C33.0394927,195.761458 35.1537715,193.790718 38.1965165,193.790718 C41.3250438,193.790718 42.8237093,195.802409 42.8237093,199.426523 L42.8237093,211.322629 L47.4559479,211.322629 L47.4559479,211.322629 Z" id="Shape" fill="#FFFFFF"></path>
                <path d="M99.0665548,81.3550014 C99.0665548,55.6739508 110.919636,32.7980059 129.377948,18.0558443 C115.879866,7.27563825 98.8445303,0.841299138 80.3307138,0.841299138 C36.5010566,0.841299138 0.972088585,36.8879324 0.972088585,81.3550014 C0.972088585,125.822071 36.5010566,161.868705 80.3307138,161.868705 C98.8445303,161.868705 115.879866,155.434365 129.377948,144.654159 C110.919636,129.911997 99.0665548,107.036052 99.0665548,81.3550014" id="Shape" stroke="#FFFFFF" stroke-width="9"></path>
                <path d="M257.713162,81.3550014 C257.713162,125.822071 222.184193,161.868705 178.354537,161.868705 C159.840719,161.868705 142.805385,155.434365 129.302257,144.654159 C147.765614,129.911997 159.618695,107.036052 159.618695,81.3550014 C159.618695,55.6739508 147.765614,32.7980059 129.302257,18.0558443 C142.805385,7.27563825 159.840719,0.841299138 178.354537,0.841299138 C222.184193,0.841299138 257.713162,36.8879324 257.713162,81.3550014" id="Shape" stroke="#FFFFFF" stroke-width="9"></path>
            </g>
            <g id="Group-2" transform="translate(5.000000, 582.000000)" fill="#FFFFFF">
                <path d="M0.0923498549,36.7838943 L0.0923498549,2.65889429 L9.42047485,2.65889429 C10.7954817,2.67451937 12.1353121,2.85811128 13.4400061,3.20967554 C14.7447001,3.56123979 15.9048448,4.1002969 16.9204749,4.82686304 C17.9361049,5.55342917 18.752503,6.47529495 19.3696936,7.59248804 C19.9868842,8.70968112 20.2876624,10.0416991 20.2720374,11.5885818 C20.2720374,12.5573366 20.1236013,13.4284217 19.8267249,14.201863 C19.5298484,14.9753044 19.1275086,15.6627975 18.6196936,16.264363 C18.1118786,16.8659285 17.5142283,17.3893608 16.8267249,17.8346755 C16.1392214,18.2799903 15.3970413,18.6510803 14.6001624,18.9479568 C15.5845423,19.182333 16.4946894,19.5417044 17.3306311,20.0260818 C18.1665728,20.5104592 18.8892218,21.1081095 19.4985999,21.8190505 C20.1079779,22.5299916 20.5884418,23.3385773 20.9400061,24.2448318 C21.2915704,25.1510863 21.4673499,26.1276391 21.4673499,27.1745193 C21.4829749,28.6901519 21.2017277,30.0377946 20.6235999,31.217488 C20.045472,32.3971814 19.2642298,33.3971714 18.2798499,34.217488 C17.2954699,35.0378046 16.1587626,35.6667046 14.8696936,36.1042068 C13.5806247,36.541709 12.2329819,36.7682692 10.8267249,36.7838943 L0.0923498549,36.7838943 Z M2.90484985,20.3776443 L2.90484985,34.3463943 L10.8970374,34.3463943 C11.9282925,34.3307692 12.9126577,34.1549897 13.8501624,33.8190505 C14.787667,33.4831114 15.6118776,33.0104598 16.3228186,32.4010818 C17.0337597,31.7917037 17.596254,31.0534299 18.0103186,30.186238 C18.4243832,29.3190462 18.6314124,28.3307748 18.6314124,27.2213943 C18.6314124,26.1432639 18.4321956,25.1862422 18.0337561,24.3503005 C17.6353166,23.5143589 17.0884471,22.8073347 16.3931311,22.2292068 C15.6978151,21.6510789 14.8931357,21.2057708 13.9790686,20.8932693 C13.0650015,20.5807677 12.1079799,20.4088944 11.1079749,20.3776443 L2.90484985,20.3776443 Z M2.90484985,17.9635818 L9.77203735,17.9635818 C10.7564173,17.9479567 11.7095327,17.8073331 12.6314124,17.5417068 C13.553292,17.2760805 14.3696901,16.8776469 15.0806311,16.3463943 C15.7915722,15.8151416 16.3657852,15.1510858 16.8032874,14.3542068 C17.2407895,13.5573278 17.4595374,12.6120248 17.4595374,11.5182693 C17.4595374,10.3776386 17.2329771,9.40499206 16.7798499,8.60030054 C16.3267226,7.79560901 15.7251661,7.13936558 14.9751624,6.63155054 C14.2251586,6.1237355 13.3736046,5.74873925 12.4204749,5.50655054 C11.4673451,5.26436183 10.4907924,5.13545687 9.49078735,5.11983179 L2.90484985,5.11983179 L2.90484985,17.9635818 Z M31.4048499,11.4245193 L43.3579749,11.4245193 L43.3579749,36.7838943 C43.3579749,38.3776523 43.1431333,39.8073255 42.7134436,41.0729568 C42.283754,42.3385881 41.6587602,43.4127961 40.8384436,44.295613 C40.018127,45.17843 39.0142308,45.8542044 37.8267249,46.3229568 C36.6392189,46.7917091 35.2876699,47.0260818 33.7720374,47.0260818 C32.8814079,47.0260818 32.0650098,46.9987383 31.3228186,46.9440505 C30.5806274,46.8893628 29.7798542,46.7838951 28.9204749,46.6276443 L29.1079749,44.3073318 C29.3892263,44.354207 29.736879,44.3971753 30.1509436,44.436238 C30.5650082,44.4753007 30.986879,44.5065504 31.4165686,44.529988 C31.8462583,44.5534257 32.2564104,44.5690505 32.6470374,44.576863 C33.0376643,44.5846756 33.3501612,44.5885818 33.5845374,44.5885818 C34.522042,44.5885818 35.4126581,44.4557706 36.2564124,44.1901443 C37.1001666,43.924518 37.8384404,43.4831161 38.4712561,42.8659255 C39.1040718,42.248735 39.607973,41.4440555 39.9829749,40.451863 C40.3579767,39.4596706 40.5454749,38.2370266 40.5454749,36.7838943 L40.5454749,13.9323318 L31.4048499,13.9323318 L31.4048499,11.4245193 Z M39.6314124,4.46358179 C39.6314124,3.8854539 39.791567,3.38936511 40.1118811,2.97530054 C40.4321952,2.56123597 40.9751585,2.35420679 41.7407874,2.35420679 C42.4907911,2.35420679 43.0376606,2.56123597 43.3814124,2.97530054 C43.7251641,3.38936511 43.8970374,3.8854539 43.8970374,4.46358179 C43.8970374,5.01045952 43.7251641,5.49092347 43.3814124,5.90498804 C43.0376606,6.31905261 42.4907911,6.52608179 41.7407874,6.52608179 C40.9751585,6.52608179 40.4321952,6.31905261 40.1118811,5.90498804 C39.791567,5.49092347 39.6314124,5.01045952 39.6314124,4.46358179 L39.6314124,4.46358179 Z M75.1157874,36.7838943 C74.9439115,36.2682667 74.8111003,35.6940537 74.7173499,35.061238 C74.6235994,34.4284224 74.5611,33.7838976 74.5298499,33.1276443 C74.0454724,33.7213973 73.4829781,34.2682668 72.8423499,34.7682693 C72.2017217,35.2682718 71.5025099,35.7018612 70.7446936,36.0690505 C69.9868773,36.4362399 69.1704792,36.7252995 68.2954749,36.936238 C67.4204705,37.1471766 66.5064171,37.2526443 65.5532874,37.2526443 C64.3657814,37.2526443 63.2603237,37.080771 62.2368811,36.7370193 C61.2134385,36.3932676 60.3228224,35.9088974 59.5650061,35.2838943 C58.8071898,34.6588912 58.2134458,33.9049925 57.7837561,33.0221755 C57.3540665,32.1393586 57.1392249,31.1510873 57.1392249,30.0573318 C57.1392249,28.6041995 57.4595342,27.3698369 58.1001624,26.3542068 C58.7407906,25.3385767 59.6079694,24.5143662 60.7017249,23.8815505 C61.7954803,23.2487349 63.0610927,22.7838958 64.4985999,22.4870193 C65.936107,22.1901428 67.4439045,22.0417068 69.0220374,22.0417068 L74.5064124,22.0417068 L74.5064124,19.1588943 C74.4907873,18.2057645 74.3032892,17.3659292 73.9439124,16.639363 C73.5845356,15.9127969 73.0962592,15.303428 72.4790686,14.811238 C71.861878,14.3190481 71.1275104,13.947958 70.2759436,13.6979568 C69.4243768,13.4479555 68.4986049,13.3229568 67.4985999,13.3229568 C66.5923453,13.3229568 65.7290727,13.4401431 64.9087561,13.6745193 C64.0884395,13.9088955 63.3618843,14.2448296 62.7290686,14.6823318 C62.0962529,15.119834 61.5845393,15.6549849 61.1939124,16.2878005 C60.8032854,16.9206162 60.59235,17.6354528 60.5610999,18.4323318 L57.7485999,18.4088943 C57.7954751,17.3307639 58.0806285,16.3385863 58.6040686,15.4323318 C59.1275087,14.5260773 59.8345329,13.7409289 60.7251624,13.076863 C61.6157918,12.4127972 62.6509377,11.8932712 63.8306311,11.5182693 C65.0103245,11.1432674 66.2720306,10.9557693 67.6157874,10.9557693 C68.9595441,10.9557693 70.2212502,11.1276426 71.4009436,11.4713943 C72.580637,11.815146 73.6040643,12.3307658 74.4712561,13.0182693 C75.3384479,13.7057727 76.0259411,14.5651391 76.5337561,15.5963943 C77.0415711,16.6276494 77.3032873,17.8307624 77.3189124,19.2057693 L77.3189124,31.4870193 C77.3189124,32.3307735 77.3931304,33.1823275 77.5415686,34.0417068 C77.6900068,34.9010861 77.8735988,35.7213904 78.0923499,36.5026443 L78.1157874,36.7838943 L75.1157874,36.7838943 Z M65.8579749,34.7682693 C66.8423548,34.7838944 67.7837516,34.666708 68.6821936,34.4167068 C69.5806356,34.1667055 70.4048461,33.8190528 71.1548499,33.373738 C71.9048536,32.9284233 72.5689095,32.3971786 73.1470374,31.779988 C73.7251652,31.1627975 74.1782857,30.487023 74.5064124,29.7526443 L74.5064124,24.1979568 L69.3970374,24.1979568 C68.1626562,24.1979568 66.9751681,24.2917058 65.8345374,24.4792068 C64.6939067,24.6667077 63.6861042,24.9752984 62.8110999,25.404988 C61.9360955,25.8346777 61.2368837,26.4088907 60.7134436,27.1276443 C60.1900035,27.8463979 59.9282874,28.7448264 59.9282874,29.8229568 C59.9282874,30.5885856 60.0845358,31.2760787 60.3970374,31.8854568 C60.7095389,32.4948348 61.1314097,33.0143609 61.6626624,33.4440505 C62.193915,33.8737402 62.8189088,34.2018619 63.5376624,34.4284255 C64.2564159,34.6549892 65.0298457,34.7682693 65.8579749,34.7682693 L65.8579749,34.7682693 Z M103.264225,10.9557693 C103.967353,10.9557693 104.670471,10.9987376 105.3736,11.0846755 C106.076728,11.1706135 106.66266,11.291706 107.131412,11.4479568 L106.77985,14.1432693 C106.123597,14.0026436 105.467353,13.8932697 104.8111,13.8151443 C104.154847,13.7370189 103.482978,13.6979568 102.795475,13.6979568 C100.420463,13.6979568 98.4048581,14.2604512 96.7485999,15.3854568 C95.0923416,16.5104624 93.9282907,18.2370076 93.2564124,20.5651443 L93.2798499,36.7838943 L90.3735999,36.7838943 L90.3735999,11.4245193 L93.0689124,11.4245193 L93.2564124,15.8307693 L93.2564124,16.3463943 C94.2876675,14.6745109 95.6548413,13.3581178 97.3579749,12.3971755 C99.0611084,11.4362332 101.029839,10.9557693 103.264225,10.9557693 L103.264225,10.9557693 Z M124.639225,4.93233179 L124.639225,11.4245193 L134.037662,11.4245193 L134.037662,13.7213943 L124.639225,13.7213943 L124.639225,29.6823318 C124.65485,30.6667117 124.807192,31.4831098 125.096256,32.1315505 C125.38532,32.7799913 125.775941,33.3034235 126.268131,33.701863 C126.760321,34.1003025 127.33844,34.3854559 128.002506,34.5573318 C128.666572,34.7292076 129.389221,34.8151443 130.170475,34.8151443 C130.951729,34.8151443 131.752502,34.7604573 132.572819,34.6510818 C133.393135,34.5417062 134.092347,34.4323323 134.670475,34.3229568 L135.09235,36.4557693 C134.420471,36.7213956 133.600167,36.9206124 132.631412,37.0534255 C131.662658,37.1862387 130.678292,37.2526443 129.678287,37.2526443 C128.553282,37.2526443 127.51423,37.1159269 126.5611,36.842488 C125.60797,36.5690492 124.779853,36.1315535 124.076725,35.529988 C123.373596,34.9284225 122.818914,34.1471803 122.412662,33.186238 C122.00641,32.2252957 121.795475,31.0495262 121.77985,29.6588943 L121.77985,13.7213943 L114.725162,13.7213943 L114.725162,11.4245193 L121.77985,11.4245193 L121.77985,4.93233179 L124.639225,4.93233179 Z M154.920475,37.2526443 C153.154841,37.2526443 151.545482,36.9245226 150.09235,36.2682693 C148.639218,35.612016 147.393136,34.7213999 146.354069,33.5963943 C145.315001,32.4713887 144.510321,31.1549956 143.940006,29.6471755 C143.369691,28.1393555 143.076725,26.5339028 143.0611,24.8307693 L143.0611,23.8229568 C143.076725,22.0104477 143.377503,20.3229646 143.963444,18.7604568 C144.549384,17.197949 145.350157,15.8385876 146.365787,14.6823318 C147.381417,13.526076 148.576718,12.6159289 149.951725,11.951863 C151.326732,11.2877972 152.803279,10.9557693 154.381412,10.9557693 C156.068921,10.9557693 157.561093,11.2604537 158.857975,11.8698318 C160.154856,12.4792098 161.244689,13.3112328 162.127506,14.3659255 C163.010323,15.4206183 163.682191,16.6510748 164.143131,18.0573318 C164.604071,19.4635888 164.84235,20.9713862 164.857975,22.5807693 L164.857975,24.2917068 L145.8736,24.2917068 L145.8736,24.8307693 C145.889225,26.1589009 146.115785,27.4284195 146.553287,28.639363 C146.99079,29.8503066 147.607971,30.9167022 148.40485,31.8385818 C149.201729,32.7604614 150.162657,33.4987353 151.287662,34.0534255 C152.412668,34.6081158 153.662655,34.8854568 155.037662,34.8854568 C156.60017,34.9010819 158.014219,34.6120223 159.27985,34.0182693 C160.545481,33.4245163 161.623595,32.5651499 162.514225,31.4401443 L164.295475,32.7760818 C163.826723,33.4323351 163.272041,34.0377978 162.631412,34.592488 C161.990784,35.1471783 161.275948,35.6198298 160.486881,36.0104568 C159.697815,36.4010837 158.834542,36.7057682 157.897037,36.9245193 C156.959533,37.1432704 155.967355,37.2526443 154.920475,37.2526443 L154.920475,37.2526443 Z M154.381412,13.3463943 C153.240782,13.3463943 152.193917,13.5612359 151.240787,13.9909255 C150.287658,14.4206152 149.451728,15.0182655 148.732975,15.7838943 C148.014221,16.5495231 147.420477,17.4518578 146.951725,18.4909255 C146.482973,19.5299932 146.162663,20.6667006 145.990787,21.9010818 L162.045475,21.9010818 L162.045475,21.5963943 C162.014225,20.5495141 161.82282,19.529993 161.471256,18.5378005 C161.119692,17.5456081 160.619697,16.6667106 159.971256,15.9010818 C159.322815,15.135453 158.529855,14.5182716 157.59235,14.0495193 C156.654845,13.5807669 155.584543,13.3463943 154.381412,13.3463943 L154.381412,13.3463943 Z M222.232975,36.7838943 L219.584537,36.7838943 L219.584537,20.4245193 L203.553287,20.4245193 L203.553287,36.7838943 L200.90485,36.7838943 L200.90485,2.65889429 L203.553287,2.65889429 L203.553287,17.9870193 L219.584537,17.9870193 L219.584537,2.65889429 L222.232975,2.65889429 L222.232975,36.7838943 Z M247.943912,36.7838943 C247.772036,36.2682667 247.639225,35.6940537 247.545475,35.061238 C247.451724,34.4284224 247.389225,33.7838976 247.357975,33.1276443 C246.873597,33.7213973 246.311103,34.2682668 245.670475,34.7682693 C245.029847,35.2682718 244.330635,35.7018612 243.572819,36.0690505 C242.815002,36.4362399 241.998604,36.7252995 241.1236,36.936238 C240.248595,37.1471766 239.334542,37.2526443 238.381412,37.2526443 C237.193906,37.2526443 236.088449,37.080771 235.065006,36.7370193 C234.041563,36.3932676 233.150947,35.9088974 232.393131,35.2838943 C231.635315,34.6588912 231.041571,33.9049925 230.611881,33.0221755 C230.182191,32.1393586 229.96735,31.1510873 229.96735,30.0573318 C229.96735,28.6041995 230.287659,27.3698369 230.928287,26.3542068 C231.568916,25.3385767 232.436094,24.5143662 233.52985,23.8815505 C234.623605,23.2487349 235.889218,22.7838958 237.326725,22.4870193 C238.764232,22.1901428 240.272029,22.0417068 241.850162,22.0417068 L247.334537,22.0417068 L247.334537,19.1588943 C247.318912,18.2057645 247.131414,17.3659292 246.772037,16.639363 C246.412661,15.9127969 245.924384,15.303428 245.307194,14.811238 C244.690003,14.3190481 243.955635,13.947958 243.104069,13.6979568 C242.252502,13.4479555 241.32673,13.3229568 240.326725,13.3229568 C239.42047,13.3229568 238.557198,13.4401431 237.736881,13.6745193 C236.916565,13.9088955 236.190009,14.2448296 235.557194,14.6823318 C234.924378,15.119834 234.412664,15.6549849 234.022037,16.2878005 C233.63141,16.9206162 233.420475,17.6354528 233.389225,18.4323318 L230.576725,18.4088943 C230.6236,17.3307639 230.908753,16.3385863 231.432194,15.4323318 C231.955634,14.5260773 232.662658,13.7409289 233.553287,13.076863 C234.443917,12.4127972 235.479063,11.8932712 236.658756,11.5182693 C237.83845,11.1432674 239.100156,10.9557693 240.443912,10.9557693 C241.787669,10.9557693 243.049375,11.1276426 244.229069,11.4713943 C245.408762,11.815146 246.432189,12.3307658 247.299381,13.0182693 C248.166573,13.7057727 248.854066,14.5651391 249.361881,15.5963943 C249.869696,16.6276494 250.131412,17.8307624 250.147037,19.2057693 L250.147037,31.4870193 C250.147037,32.3307735 250.221255,33.1823275 250.369694,34.0417068 C250.518132,34.9010861 250.701724,35.7213904 250.920475,36.5026443 L250.943912,36.7838943 L247.943912,36.7838943 Z M238.6861,34.7682693 C239.67048,34.7838944 240.611877,34.666708 241.510319,34.4167068 C242.408761,34.1667055 243.232971,33.8190528 243.982975,33.373738 C244.732979,32.9284233 245.397034,32.3971786 245.975162,31.779988 C246.55329,31.1627975 247.006411,30.487023 247.334537,29.7526443 L247.334537,24.1979568 L242.225162,24.1979568 C240.990781,24.1979568 239.803293,24.2917058 238.662662,24.4792068 C237.522032,24.6667077 236.514229,24.9752984 235.639225,25.404988 C234.76422,25.8346777 234.065009,26.4088907 233.541569,27.1276443 C233.018128,27.8463979 232.756412,28.7448264 232.756412,29.8229568 C232.756412,30.5885856 232.912661,31.2760787 233.225162,31.8854568 C233.537664,32.4948348 233.959535,33.0143609 234.490787,33.4440505 C235.02204,33.8737402 235.647034,34.2018619 236.365787,34.4284255 C237.084541,34.6549892 237.857971,34.7682693 238.6861,34.7682693 L238.6861,34.7682693 Z M266.272037,23.9635818 L262.6861,27.1745193 L262.6861,36.7838943 L259.850162,36.7838943 L259.850162,0.783894287 L262.6861,0.783894287 L262.6861,23.9401443 L265.709537,20.9635818 L275.9986,11.4245193 L279.584537,11.4245193 L268.264225,22.1120193 L280.756412,36.7838943 L277.147037,36.7838943 L266.272037,23.9635818 Z M295.076725,23.9635818 L291.490787,27.1745193 L291.490787,36.7838943 L288.65485,36.7838943 L288.65485,0.783894287 L291.490787,0.783894287 L291.490787,23.9401443 L294.514225,20.9635818 L304.803287,11.4245193 L308.389225,11.4245193 L297.068912,22.1120193 L309.5611,36.7838943 L305.951725,36.7838943 L295.076725,23.9635818 Z M327.7486,37.2526443 C325.982966,37.2526443 324.373607,36.9245226 322.920475,36.2682693 C321.467343,35.612016 320.221261,34.7213999 319.182194,33.5963943 C318.143126,32.4713887 317.338446,31.1549956 316.768131,29.6471755 C316.197816,28.1393555 315.90485,26.5339028 315.889225,24.8307693 L315.889225,23.8229568 C315.90485,22.0104477 316.205628,20.3229646 316.791569,18.7604568 C317.377509,17.197949 318.178282,15.8385876 319.193912,14.6823318 C320.209542,13.526076 321.404843,12.6159289 322.77985,11.951863 C324.154857,11.2877972 325.631404,10.9557693 327.209537,10.9557693 C328.897046,10.9557693 330.389218,11.2604537 331.6861,11.8698318 C332.982981,12.4792098 334.072814,13.3112328 334.955631,14.3659255 C335.838448,15.4206183 336.510316,16.6510748 336.971256,18.0573318 C337.432196,19.4635888 337.670475,20.9713862 337.6861,22.5807693 L337.6861,24.2917068 L318.701725,24.2917068 L318.701725,24.8307693 C318.71735,26.1589009 318.94391,27.4284195 319.381412,28.639363 C319.818915,29.8503066 320.436096,30.9167022 321.232975,31.8385818 C322.029854,32.7604614 322.990782,33.4987353 324.115787,34.0534255 C325.240793,34.6081158 326.49078,34.8854568 327.865787,34.8854568 C329.428295,34.9010819 330.842344,34.6120223 332.107975,34.0182693 C333.373606,33.4245163 334.45172,32.5651499 335.34235,31.4401443 L337.1236,32.7760818 C336.654848,33.4323351 336.100166,34.0377978 335.459537,34.592488 C334.818909,35.1471783 334.104073,35.6198298 333.315006,36.0104568 C332.52594,36.4010837 331.662667,36.7057682 330.725162,36.9245193 C329.787658,37.1432704 328.79548,37.2526443 327.7486,37.2526443 L327.7486,37.2526443 Z M327.209537,13.3463943 C326.068907,13.3463943 325.022042,13.5612359 324.068912,13.9909255 C323.115783,14.4206152 322.279853,15.0182655 321.5611,15.7838943 C320.842346,16.5495231 320.248602,17.4518578 319.77985,18.4909255 C319.311098,19.5299932 318.990788,20.6667006 318.818912,21.9010818 L334.8736,21.9010818 L334.8736,21.5963943 C334.84235,20.5495141 334.650945,19.529993 334.299381,18.5378005 C333.947817,17.5456081 333.447822,16.6667106 332.799381,15.9010818 C332.15094,15.135453 331.35798,14.5182716 330.420475,14.0495193 C329.48297,13.5807669 328.412668,13.3463943 327.209537,13.3463943 L327.209537,13.3463943 Z M348.303287,11.4245193 L348.514225,16.1823318 C349.404854,14.6041989 350.592342,13.3424928 352.076725,12.3971755 C353.561107,11.4518583 355.24859,10.9713944 357.139225,10.9557693 C359.920489,10.9557693 362.045468,11.7877922 363.514225,13.451863 C364.982982,15.1159339 365.725162,17.4791915 365.740787,20.5417068 L365.740787,36.7838943 L362.928287,36.7838943 L362.928287,20.5885818 C362.912662,18.2604451 362.381418,16.4753067 361.334537,15.233113 C360.287657,13.9909193 358.662673,13.3776442 356.459537,13.3932693 C355.553283,13.3932693 354.69001,13.5417053 353.869694,13.8385818 C353.049377,14.1354583 352.299385,14.5417042 351.619694,15.0573318 C350.940003,15.5729594 350.338446,16.1823283 349.815006,16.8854568 C349.291566,17.5885853 348.865789,18.3542026 348.537662,19.1823318 L348.537662,36.7838943 L345.725162,36.7838943 L345.725162,11.4245193 L348.303287,11.4245193 Z" id="Bjarte-Hakken"></path>
                <path d="M12.9360999,106.558683 L10.1235999,106.558683 L10.1235999,75.972746 L0.678287355,80.0274335 L0.678287355,77.378996 L12.5376624,72.4336835 L12.9360999,72.4336835 L12.9360999,106.558683 Z M41.7407874,106.558683 L38.9282874,106.558683 L38.9282874,75.972746 L29.4829749,80.0274335 L29.4829749,77.378996 L41.3423499,72.4336835 L41.7407874,72.4336835 L41.7407874,106.558683 Z M62.3189124,109.488371 L59.6939124,109.488371 L73.9439124,72.4336835 L76.5689124,72.4336835 L62.3189124,109.488371 Z M106.40485,106.558683 L85.0064124,106.558683 L85.0064124,104.402433 L96.1860999,91.722746 C97.014229,90.7852413 97.7759401,89.8868128 98.4712561,89.0274335 C99.1665721,88.1680542 99.7681286,87.3204064 100.275944,86.4844647 C100.783759,85.648523 101.178286,84.8086877 101.459537,83.9649335 C101.740789,83.1211793 101.881412,82.2540004 101.881412,81.363371 C101.881412,80.3321158 101.709539,79.3868128 101.365787,78.5274335 C101.022036,77.6680542 100.533759,76.9297803 99.9009436,76.3125897 C99.2681279,75.6953991 98.5142292,75.2149352 97.6392249,74.8711835 C96.7642205,74.5274318 95.7876677,74.3555585 94.7095374,74.3555585 C93.5064063,74.3555585 92.4361045,74.5586814 91.4985999,74.9649335 C90.5610952,75.3711855 89.7681343,75.9258675 89.1196936,76.628996 C88.4712529,77.3321245 87.9712579,78.1641474 87.6196936,79.1250897 C87.2681293,80.086032 87.0845374,81.1368028 87.0689124,82.2774335 L84.2564124,82.2774335 C84.2720374,80.8711764 84.5298474,79.5430647 85.0298499,78.2930585 C85.5298524,77.0430522 86.2329703,75.9493132 87.1392249,75.0118085 C88.0454794,74.0743038 89.1353122,73.3321237 90.4087561,72.785246 C91.6822,72.2383682 93.1157794,71.9649335 94.7095374,71.9649335 C96.2095449,71.9649335 97.5728125,72.1875875 98.7993811,72.6329022 C100.02595,73.078217 101.07672,73.7110231 101.951725,74.5313397 C102.826729,75.3516563 103.502504,76.3360215 103.979069,77.4844647 C104.455633,78.632908 104.693912,79.9024265 104.693912,81.2930585 C104.693912,82.4180641 104.494696,83.5118032 104.096256,84.5743085 C103.697817,85.6368138 103.182197,86.6758659 102.549381,87.691496 C101.916565,88.7071261 101.197823,89.6914912 100.393131,90.644621 C99.5884396,91.5977507 98.7876663,92.5274289 97.9907874,93.4336835 L88.4517249,104.191496 L106.40485,104.191496 L106.40485,106.558683 Z M135.209537,106.558683 L113.8111,106.558683 L113.8111,104.402433 L124.990787,91.722746 C125.818916,90.7852413 126.580628,89.8868128 127.275944,89.0274335 C127.97126,88.1680542 128.572816,87.3204064 129.080631,86.4844647 C129.588446,85.648523 129.982973,84.8086877 130.264225,83.9649335 C130.545476,83.1211793 130.6861,82.2540004 130.6861,81.363371 C130.6861,80.3321158 130.514227,79.3868128 130.170475,78.5274335 C129.826723,77.6680542 129.338447,76.9297803 128.705631,76.3125897 C128.072815,75.6953991 127.318917,75.2149352 126.443912,74.8711835 C125.568908,74.5274318 124.592355,74.3555585 123.514225,74.3555585 C122.311094,74.3555585 121.240792,74.5586814 120.303287,74.9649335 C119.365783,75.3711855 118.572822,75.9258675 117.924381,76.628996 C117.27594,77.3321245 116.775945,78.1641474 116.424381,79.1250897 C116.072817,80.086032 115.889225,81.1368028 115.8736,82.2774335 L113.0611,82.2774335 C113.076725,80.8711764 113.334535,79.5430647 113.834537,78.2930585 C114.33454,77.0430522 115.037658,75.9493132 115.943912,75.0118085 C116.850167,74.0743038 117.94,73.3321237 119.213444,72.785246 C120.486887,72.2383682 121.920467,71.9649335 123.514225,71.9649335 C125.014232,71.9649335 126.3775,72.1875875 127.604069,72.6329022 C128.830637,73.078217 129.881408,73.7110231 130.756412,74.5313397 C131.631417,75.3516563 132.307191,76.3360215 132.783756,77.4844647 C133.260321,78.632908 133.4986,79.9024265 133.4986,81.2930585 C133.4986,82.4180641 133.299383,83.5118032 132.900944,84.5743085 C132.502504,85.6368138 131.986884,86.6758659 131.354069,87.691496 C130.721253,88.7071261 130.00251,89.6914912 129.197819,90.644621 C128.393127,91.5977507 127.592354,92.5274289 126.795475,93.4336835 L117.256412,104.191496 L135.209537,104.191496 L135.209537,106.558683 Z" id="11/22"></path>
            </g>
            <path d="M38.3131668,355.036253 C38.3131668,358.406098 37.94028,361.589449 37.1944945,364.586401 C36.448709,367.583354 35.3024268,370.200469 33.7556126,372.437825 C32.2087984,374.675181 30.2476884,376.449847 27.8722237,377.761877 C25.496759,379.073907 22.6655793,379.729912 19.3785991,379.729912 C16.1192408,379.729912 13.2949668,379.073907 10.9056915,377.761877 C8.51641552,376.449847 6.54149554,374.675181 4.98087007,372.437825 C3.42024531,370.200469 2.26015183,367.583354 1.5005557,364.586401 C0.74095956,361.589449 0.347356554,358.406098 0.319734658,355.036253 L0.319734658,342.482262 C0.347356554,339.112417 0.734054616,335.929066 1.47983945,332.932113 C2.22562499,329.935161 3.37881282,327.304235 4.93943829,325.039258 C6.50006305,322.77428 8.46807808,320.985803 10.8435428,319.673773 C13.2190075,318.361743 16.0363765,317.705738 19.2957348,317.705738 C22.582715,317.705738 25.4207996,318.361743 27.8100756,319.673773 C30.1993509,320.985803 32.1673659,322.767374 33.7141801,325.018541 C35.2609943,327.269709 36.4141821,329.900634 37.1737782,332.911398 C37.9333744,335.92216 38.3131668,339.112417 38.3131668,342.482262 L38.3131668,355.036253 L38.3131668,355.036253 Z M5.29161234,355.782035 C5.29161234,356.914524 5.33304483,357.991753 5.41590981,359.013755 L32.6369396,334.361528 C32.2502366,332.593741 31.711622,330.950276 31.0210795,329.431083 C30.3305378,327.91189 29.439752,326.59988 28.3486952,325.495013 C27.2576391,324.390146 25.9663446,323.520076 24.4747743,322.884777 C22.9832032,322.249479 21.2568739,321.931834 19.2957348,321.931834 C16.7269183,321.931834 14.5517436,322.470449 12.7701451,323.547694 C10.9885466,324.62494 9.54533557,326.075056 8.44046821,327.898087 C7.33560155,329.721118 6.53458424,331.820335 6.03739435,334.195799 C5.54020375,336.571264 5.29161234,339.057177 5.29161234,341.653616 L5.29161234,355.782035 L5.29161234,355.782035 Z M33.3412891,341.653616 C33.3412891,340.7421 33.2998573,339.844409 33.2169923,338.960515 L6.12025862,363.571309 C6.53458424,365.283854 7.10082003,366.872077 7.81898367,368.336026 C8.53714732,369.799975 9.43483879,371.063648 10.5120843,372.127083 C11.5893297,373.190517 12.859908,374.02606 14.3238572,374.633738 C15.7878063,375.241414 17.4727031,375.545248 19.3785991,375.545248 C21.9474157,375.545248 24.1225903,374.999729 25.9041888,373.908672 C27.6857874,372.817616 29.1220934,371.360594 30.2131495,369.537563 C31.3042056,367.714532 32.0983172,365.615315 32.5955078,363.239851 C33.0926977,360.864387 33.3412891,358.378473 33.3412891,355.782035 L33.3412891,341.653616 L33.3412891,341.653616 Z M83.9218581,378.901266 L78.9499804,378.901266 L78.9499804,324.832096 L62.252758,331.999886 L62.252758,327.318035 L83.2175086,318.575817 L83.9218581,318.575817 L83.9218581,378.901266 L83.9218581,378.901266 Z M157.124471,355.036253 C157.124471,358.406098 156.751583,361.589449 156.005798,364.586401 C155.260013,367.583354 154.11373,370.200469 152.566916,372.437825 C151.020102,374.675181 149.058992,376.449847 146.683528,377.761877 C144.308063,379.073907 141.476883,379.729912 138.189903,379.729912 C134.930545,379.729912 132.10627,379.073907 129.716995,377.761877 C127.32772,376.449847 125.352799,374.675181 123.792174,372.437825 C122.231549,370.200469 121.071456,367.583354 120.31186,364.586401 C119.552264,361.589449 119.158661,358.406098 119.131039,355.036253 L119.131039,342.482262 C119.158661,339.112417 119.545358,335.929066 120.291144,332.932113 C121.036929,329.935161 122.190117,327.304235 123.750742,325.039258 C125.311366,322.77428 127.279382,320.985803 129.654846,319.673773 C132.030311,318.361743 134.84768,317.705738 138.107038,317.705738 C141.394018,317.705738 144.232104,318.361743 146.621379,319.673773 C149.010654,320.985803 150.978669,322.767374 152.525483,325.018541 C154.072298,327.269709 155.225485,329.900634 155.985082,332.911398 C156.744678,335.92216 157.124471,339.112417 157.124471,342.482262 L157.124471,355.036253 L157.124471,355.036253 Z M124.102916,355.782035 C124.102916,356.914524 124.144348,357.991753 124.227213,359.013755 L151.448244,334.361528 C151.06154,332.593741 150.522925,330.950276 149.832384,329.431083 C149.141841,327.91189 148.251055,326.59988 147.159999,325.495013 C146.068942,324.390146 144.777649,323.520076 143.286078,322.884777 C141.794507,322.249479 140.068178,321.931834 138.107038,321.931834 C135.538222,321.931834 133.363048,322.470449 131.581449,323.547694 C129.799851,324.62494 128.35664,326.075056 127.251772,327.898087 C126.146905,329.721118 125.345888,331.820335 124.848698,334.195799 C124.351508,336.571264 124.102916,339.057177 124.102916,341.653616 L124.102916,355.782035 L124.102916,355.782035 Z M152.152593,341.653616 C152.152593,340.7421 152.111161,339.844409 152.028296,338.960515 L124.931563,363.571309 C125.345888,365.283854 125.912124,366.872077 126.630288,368.336026 C127.348451,369.799975 128.246142,371.063648 129.323388,372.127083 C130.400633,373.190517 131.671212,374.02606 133.135161,374.633738 C134.59911,375.241414 136.284007,375.545248 138.189903,375.545248 C140.75872,375.545248 142.933894,374.999729 144.715492,373.908672 C146.497091,372.817616 147.933397,371.360594 149.024453,369.537563 C150.11551,367.714532 150.909621,365.615315 151.406811,363.239851 C151.904002,360.864387 152.152593,358.378473 152.152593,355.782035 L152.152593,341.653616 L152.152593,341.653616 Z M208.78228,359.46951 L218.228847,359.46951 L218.228847,363.654174 L208.78228,363.654174 L208.78228,378.901266 L203.851834,378.901266 L203.851834,363.654174 L175.470699,363.654174 L175.470699,360.836777 L203.354647,318.575817 L208.78228,318.575817 L208.78228,359.46951 L208.78228,359.46951 Z M181.436952,359.46951 L203.851834,359.46951 L203.851834,324.832096 L201.490192,329.01676 L181.436952,359.46951 L181.436952,359.46951 Z M335.631452,321.434646 L309.860553,378.901266 L304.681514,378.901266 L330.286684,323.009074 L295.980728,323.009074 L295.980728,318.575817 L335.631452,318.575817 L335.631452,321.434646 L335.631452,321.434646 Z M366.863131,346.045441 L371.876441,346.045441 C373.809958,346.017819 375.632962,345.741606 377.345506,345.216794 C379.05805,344.691983 380.556504,343.932398 381.840912,342.938017 C383.12532,341.943637 384.140402,340.728301 384.886187,339.291974 C385.631973,337.855646 386.004859,336.19837 386.004859,334.320096 C386.004859,332.358957 385.701026,330.611911 385.093349,329.078909 C384.485672,327.545905 383.629412,326.25461 382.524545,325.204987 C381.419678,324.155363 380.086952,323.354346 378.526327,322.801912 C376.965702,322.249479 375.232468,321.973267 373.326572,321.973267 C371.420676,321.973267 369.666725,322.270195 368.064668,322.864061 C366.46261,323.457927 365.074641,324.293471 363.90072,325.370716 C362.726799,326.447962 361.801487,327.753067 361.124756,329.28607 C360.448024,330.819073 360.095853,332.524686 360.068231,334.40296 L355.096354,334.40296 C355.151597,332.027496 355.641875,329.8247 356.567201,327.794506 C357.492527,325.764313 358.7562,324.003457 360.358257,322.511886 C361.960315,321.020316 363.866182,319.853317 366.075917,319.010856 C368.285651,318.168395 370.702512,317.74717 373.326572,317.74717 C375.895388,317.74717 378.257006,318.126963 380.411497,318.886559 C382.565988,319.646155 384.423518,320.737196 385.984144,322.159712 C387.544769,323.582228 388.760105,325.329274 389.630188,327.4009 C390.50027,329.472526 390.935305,331.834144 390.935305,334.485825 C390.935305,335.977396 390.693619,337.406797 390.21024,338.77407 C389.72686,340.141343 389.029424,341.411921 388.117908,342.585843 C387.206393,343.759764 386.101541,344.809372 384.803323,345.734698 C383.505104,346.660024 382.054987,347.412704 380.45293,347.992759 C384.209478,349.042384 387.08209,350.844671 389.070851,353.399677 C391.059612,355.954682 392.053978,358.999927 392.053978,362.535502 C392.053978,365.242427 391.57751,367.659287 390.624563,369.786157 C389.671615,371.913027 388.359604,373.708409 386.688493,375.172357 C385.017381,376.636306 383.056271,377.761873 380.805104,378.549091 C378.553937,379.336309 376.130171,379.729912 373.533733,379.729912 C370.882052,379.729912 368.396138,379.336309 366.075917,378.549091 C363.755695,377.761873 361.725532,376.629401 359.985366,375.151642 C358.245201,373.673881 356.864137,371.871594 355.842135,369.744724 C354.820133,367.617855 354.281519,365.214805 354.226275,362.535502 L359.15672,362.535502 C359.211964,364.524263 359.612472,366.319645 360.358257,367.921702 C361.104043,369.52376 362.119124,370.891013 363.403533,372.023502 C364.687941,373.155991 366.1933,374.02606 367.919654,374.633738 C369.64601,375.241414 371.517351,375.545248 373.533733,375.545248 C375.494873,375.545248 377.310971,375.269036 378.982083,374.716602 C380.653194,374.164168 382.0895,373.349341 383.291043,372.272096 C384.492586,371.19485 385.43171,369.855219 386.108441,368.253161 C386.785172,366.651104 387.123532,364.800479 387.123532,362.701231 C387.123532,360.491497 386.716119,358.606345 385.901279,357.04572 C385.086439,355.485096 383.988494,354.207612 382.60741,353.213231 C381.226326,352.218851 379.610482,351.486887 377.759829,351.017318 C375.909177,350.54775 373.948067,350.299158 371.876441,350.271537 L366.863131,350.271537 L366.863131,346.045441 L366.863131,346.045441 Z M445.369079,318.120061 L445.369079,322.636184 L444.623298,322.636184 C440.590532,322.663805 437.124064,323.340526 434.223787,324.666367 C431.323511,325.992208 428.92046,327.766874 427.014564,329.990419 C425.108668,332.213964 423.658551,334.789648 422.664171,337.717545 C421.66979,340.645444 421.075933,343.697594 420.882582,346.874087 C421.655989,345.76922 422.581301,344.747233 423.658546,343.808096 C424.735792,342.868959 425.916602,342.067942 427.20101,341.405021 C428.485417,340.742102 429.859576,340.224203 431.323525,339.85131 C432.787474,339.478417 434.292833,339.291974 435.839647,339.291974 C438.739924,339.291974 441.274174,339.851304 443.442477,340.969982 C445.610779,342.08866 447.419972,343.566398 448.87011,345.40324 C450.320248,347.240081 451.404383,349.353109 452.122547,351.742384 C452.84071,354.131659 453.199787,356.596857 453.199787,359.138052 C453.199787,361.789733 452.819994,364.351606 452.060398,366.823746 C451.300802,369.295887 450.16833,371.484872 448.662948,373.390768 C447.157567,375.296664 445.293131,376.829644 443.069586,377.989755 C440.84604,379.149866 438.270358,379.729912 435.342459,379.729912 C432.193588,379.729912 429.410745,379.101528 426.993848,377.844742 C424.576951,376.587956 422.539883,374.930679 420.882582,372.872864 C419.225281,370.815049 417.968513,368.460336 417.112241,365.808655 C416.255969,363.156973 415.814029,360.422468 415.786407,357.605056 L415.786407,352.260288 C415.786407,349.387633 416.007377,346.549548 416.449324,343.745947 C416.891271,340.942347 417.581803,338.2838 418.52094,335.770227 C419.460077,333.256654 420.675413,330.922657 422.166983,328.768166 C423.658554,326.613675 425.467747,324.756144 427.594617,323.19552 C429.721486,321.634895 432.193589,320.405748 435.011001,319.508043 C437.828412,318.610339 441.032479,318.147683 444.623298,318.120061 L445.369079,318.120061 L445.369079,318.120061 Z M435.052433,343.559502 C433.477997,343.559502 431.938111,343.808093 430.43273,344.305284 C428.927349,344.802474 427.53938,345.493006 426.268783,346.376899 C424.998185,347.260793 423.886429,348.331117 422.933481,349.587904 C421.980533,350.844691 421.269285,352.232659 420.799717,353.751851 L420.799717,357.687921 C420.799717,360.284359 421.158793,362.680504 421.876957,364.876428 C422.595121,367.072351 423.596392,368.957503 424.8808,370.531938 C426.165208,372.106374 427.698188,373.335521 429.479787,374.219414 C431.261385,375.103308 433.21559,375.531438 435.342459,375.503816 C437.441707,375.503816 439.299237,375.048065 440.915105,374.13655 C442.530974,373.225034 443.884416,372.016604 444.975472,370.511223 C446.066529,369.005841 446.895166,367.279512 447.461411,365.332183 C448.027656,363.384855 448.310774,361.375407 448.310774,359.303781 C448.310774,357.232155 448.027656,355.25033 447.461411,353.358244 C446.895166,351.466159 446.052718,349.795073 444.93404,348.344934 C443.815362,346.894796 442.434298,345.734703 440.790809,344.86462 C439.147319,343.994537 437.234546,343.559502 435.052433,343.559502 L435.052433,343.559502 L435.052433,343.559502 Z M505.810539,359.46951 L515.257107,359.46951 L515.257107,363.654174 L505.810539,363.654174 L505.810539,378.901266 L500.880094,378.901266 L500.880094,363.654174 L472.498959,363.654174 L472.498959,360.836777 L500.382906,318.575817 L505.810539,318.575817 L505.810539,359.46951 L505.810539,359.46951 Z M478.465212,359.46951 L500.880094,359.46951 L500.880094,324.832096 L498.518452,329.01676 L478.465212,359.46951 L478.465212,359.46951 Z M598.602346,347.992759 L601.544043,318.575817 L631.706768,318.575817 L631.706768,323.381965 L605.770138,323.381965 L603.698527,343.559502 C605.190094,342.5375 606.902612,341.729578 608.836131,341.135712 C610.769649,340.541846 612.841245,340.244917 615.050976,340.244917 C617.785525,340.244917 620.257629,340.721384 622.467359,341.674332 C624.677097,342.62728 626.55534,343.966911 628.102154,345.693266 C629.648974,347.419621 630.836688,349.477406 631.665338,351.866681 C632.493988,354.255956 632.908306,356.859261 632.908306,359.676672 C632.908306,362.466462 632.549228,365.076672 631.831064,367.50738 C631.1129,369.938087 630.014954,372.05802 628.537197,373.867239 C627.059433,375.67646 625.194999,377.10586 622.943832,378.155484 C620.692665,379.205108 618.034117,379.729912 614.968117,379.729912 C612.45454,379.729912 610.127451,379.357025 607.986769,378.61124 C605.846088,377.865454 603.967845,376.774414 602.351975,375.338087 C600.736105,373.901759 599.424095,372.147809 598.415902,370.076183 C597.40771,368.004557 596.765518,365.656749 596.489299,363.03269 L601.295451,363.03269 C601.544043,364.993829 602.027418,366.747779 602.745581,368.294593 C603.463745,369.841408 604.402867,371.153418 605.562975,372.230663 C606.723091,373.307909 608.09034,374.129641 609.66478,374.695886 C611.239214,375.262131 613.006971,375.545248 614.968117,375.545248 C617.177847,375.545248 619.097528,375.14474 620.727207,374.343712 C622.356887,373.542682 623.710327,372.430926 624.787569,371.00841 C625.864818,369.585894 626.658932,367.914807 627.169926,365.9951 C627.680928,364.075394 627.936428,361.996893 627.936428,359.759537 C627.936428,357.660289 627.625688,355.699179 627.004201,353.876148 C626.382713,352.053117 625.47812,350.464895 624.290385,349.111432 C623.102649,347.75797 621.659442,346.694551 619.960706,345.921144 C618.261976,345.147737 616.335387,344.761039 614.180896,344.761039 C612.910302,344.761039 611.743306,344.843903 610.679867,345.009633 C609.616435,345.175363 608.622067,345.44467 607.696741,345.817563 C606.771415,346.190456 605.887532,346.646207 605.045073,347.184829 C604.202613,347.723452 603.367069,348.365647 602.538419,349.111432 L598.602346,347.992759 L598.602346,347.992759 Z M663.891393,346.045441 L668.9047,346.045441 C670.838219,346.017819 672.661223,345.741606 674.373762,345.216794 C676.086309,344.691983 677.584763,343.932398 678.869174,342.938017 C680.153578,341.943637 681.168658,340.728301 681.914449,339.291974 C682.660232,337.855646 683.03312,336.19837 683.03312,334.320096 C683.03312,332.358957 682.729282,330.611911 682.121611,329.078909 C681.513934,327.545905 680.657671,326.25461 679.552802,325.204987 C678.447941,324.155363 677.115212,323.354346 675.554589,322.801912 C673.993959,322.249479 672.260729,321.973267 670.35483,321.973267 C668.448932,321.973267 666.694984,322.270195 665.092924,322.864061 C663.490871,323.457927 662.102903,324.293471 660.928978,325.370716 C659.755059,326.447962 658.829748,327.753067 658.153014,329.28607 C657.476287,330.819073 657.12411,332.524686 657.09649,334.40296 L652.124612,334.40296 C652.179859,332.027496 652.670135,329.8247 653.595461,327.794506 C654.520787,325.764313 655.784459,324.003457 657.386519,322.511886 C658.988572,321.020316 660.894442,319.853317 663.104173,319.010856 C665.31391,318.168395 667.730768,317.74717 670.35483,317.74717 C672.923646,317.74717 675.285264,318.126963 677.439755,318.886559 C679.594246,319.646155 681.451779,320.737196 683.012402,322.159712 C684.573025,323.582228 685.788366,325.329274 686.658446,327.4009 C687.528532,329.472526 687.963561,331.834144 687.963561,334.485825 C687.963561,335.977396 687.721878,337.406797 687.238496,338.77407 C686.755122,340.141343 686.057684,341.411921 685.146167,342.585843 C684.234651,343.759764 683.129804,344.809372 681.831582,345.734698 C680.533361,346.660024 679.083245,347.412704 677.481192,347.992759 C681.237736,349.042384 684.110348,350.844671 686.099113,353.399677 C688.087871,355.954682 689.08224,358.999927 689.08224,362.535502 C689.08224,365.242427 688.605767,367.659287 687.652821,369.786157 C686.699875,371.913027 685.387865,373.708409 683.716756,375.172357 C682.045639,376.636306 680.084529,377.761873 677.833362,378.549091 C675.582195,379.336309 673.158429,379.729912 670.561993,379.729912 C667.910311,379.729912 665.424397,379.336309 663.104173,378.549091 C660.783956,377.761873 658.75379,376.629401 657.013624,375.151642 C655.273458,373.673881 653.892398,371.871594 652.870396,369.744724 C651.848393,367.617855 651.309779,365.214805 651.254533,362.535502 L656.184981,362.535502 C656.24022,364.524263 656.640728,366.319645 657.386519,367.921702 C658.132302,369.52376 659.147382,370.891013 660.431793,372.023502 C661.716198,373.155991 663.22156,374.02606 664.947917,374.633738 C666.674266,375.241414 668.545608,375.545248 670.561993,375.545248 C672.523131,375.545248 674.339227,375.269036 676.010344,374.716602 C677.681453,374.164168 679.117759,373.349341 680.319304,372.272096 C681.520842,371.19485 682.459971,369.855219 683.136698,368.253161 C683.813432,366.651104 684.151792,364.800479 684.151792,362.701231 C684.151792,360.491497 683.744375,358.606345 682.929536,357.04572 C682.114696,355.485096 681.016757,354.207612 679.635669,353.213231 C678.254588,352.218851 676.638739,351.486887 674.788087,351.017318 C672.937435,350.54775 670.976325,350.299158 668.9047,350.271537 L663.891393,350.271537 L663.891393,346.045441 L663.891393,346.045441 Z M743.433149,359.46951 L752.879713,359.46951 L752.879713,363.654174 L743.433149,363.654174 L743.433149,378.901266 L738.502701,378.901266 L738.502701,363.654174 L710.121565,363.654174 L710.121565,360.836777 L738.005516,318.575817 L743.433149,318.575817 L743.433149,359.46951 L743.433149,359.46951 Z M716.087818,359.46951 L738.502701,359.46951 L738.502701,324.832096 L736.141061,329.01676 L716.087818,359.46951 L716.087818,359.46951 Z M776.819305,347.992759 L779.761002,318.575817 L809.923726,318.575817 L809.923726,323.381965 L783.987096,323.381965 L781.915478,343.559502 C783.407052,342.5375 785.11957,341.729578 787.053089,341.135712 C788.986607,340.541846 791.058197,340.244917 793.267934,340.244917 C796.002483,340.244917 798.474587,340.721384 800.684317,341.674332 C802.894055,342.62728 804.772299,343.966911 806.319112,345.693266 C807.865926,347.419621 809.05364,349.477406 809.882289,351.866681 C810.710939,354.255956 811.125264,356.859261 811.125264,359.676672 C811.125264,362.466462 810.766186,365.076672 810.048022,367.50738 C809.329859,369.938087 808.231912,372.05802 806.754155,373.867239 C805.276391,375.67646 803.411958,377.10586 801.16079,378.155484 C798.909623,379.205108 796.251075,379.729912 793.185068,379.729912 C790.671499,379.729912 788.344402,379.357025 786.203728,378.61124 C784.063047,377.865454 782.184796,376.774414 780.568926,375.338087 C778.953063,373.901759 777.641053,372.147809 776.63286,370.076183 C775.624668,368.004557 774.982476,365.656749 774.706257,363.03269 L779.512402,363.03269 C779.761002,364.993829 780.244376,366.747779 780.96254,368.294593 C781.680703,369.841408 782.619825,371.153418 783.779933,372.230663 C784.940042,373.307909 786.307298,374.129641 787.881732,374.695886 C789.456172,375.262131 791.223929,375.545248 793.185068,375.545248 C795.394805,375.545248 797.314479,375.14474 798.944158,374.343712 C800.573838,373.542682 801.927285,372.430926 803.004527,371.00841 C804.081776,369.585894 804.875883,367.914807 805.386885,365.9951 C805.897886,364.075394 806.153386,361.996893 806.153386,359.759537 C806.153386,357.660289 805.842646,355.699179 805.221159,353.876148 C804.599672,352.053117 803.695071,350.464895 802.507343,349.111432 C801.319608,347.75797 799.876393,346.694551 798.177664,345.921144 C796.478927,345.147737 794.552346,344.761039 792.397855,344.761039 C791.12726,344.761039 789.960257,344.843903 788.896825,345.009633 C787.833386,345.175363 786.839025,345.44467 785.913699,345.817563 C784.988373,346.190456 784.10449,346.646207 783.262031,347.184829 C782.419571,347.723452 781.584027,348.365647 780.755377,349.111432 L776.819305,347.992759 L776.819305,347.992759 Z M900.685354,374.882331 C904.91147,374.85471 908.467703,374.198704 911.354175,372.914296 C914.240639,371.629888 916.588447,369.896654 918.397663,367.714541 C920.206885,365.532429 921.525804,362.991272 922.354453,360.090996 C923.183103,357.190718 923.638851,354.097137 923.721717,350.810157 C923.003554,352.025511 922.14039,353.137267 921.132197,354.145458 C920.124005,355.15365 918.984629,356.030625 917.714034,356.776411 C916.443433,357.522195 915.048563,358.102242 913.52937,358.516567 C912.010176,358.930892 910.366707,359.138052 908.598922,359.138052 C905.726267,359.138052 903.212733,358.5511 901.058242,357.377179 C898.903751,356.203257 897.101466,354.663372 895.651321,352.757476 C894.201184,350.85158 893.110146,348.690216 892.378173,346.273319 C891.646199,343.856421 891.280213,341.405034 891.280213,338.919083 C891.280213,336.212158 891.673819,333.595043 892.461039,331.06766 C893.248252,328.540276 894.408347,326.289142 895.94135,324.314192 C897.474354,322.339242 899.373316,320.757925 901.638293,319.570192 C903.90327,318.38246 906.52729,317.774792 909.510431,317.74717 C912.990763,317.74717 915.939333,318.430797 918.356233,319.79807 C920.773133,321.165343 922.748053,322.981442 924.281057,325.246419 C925.81406,327.511397 926.932718,330.08708 927.637071,332.973546 C928.341425,335.860012 928.693595,338.808582 928.693595,341.819345 L928.693595,346.625493 C928.693595,349.387661 928.507151,352.108356 928.134256,354.787659 C927.761367,357.466962 927.146796,360.015024 926.290519,362.431921 C925.434249,364.848818 924.308683,367.086141 922.913786,369.143956 C921.518895,371.201771 919.785659,372.983343 917.714034,374.488725 C915.642403,375.994106 913.197925,377.174915 910.38051,378.031187 C907.563102,378.88746 904.331412,379.3294 900.685354,379.357021 L899.566675,379.357021 L899.608112,374.882331 L900.685354,374.882331 L900.685354,374.882331 Z M909.220409,354.870524 C910.877709,354.870524 912.472839,354.601216 914.005843,354.062594 C915.538846,353.523971 916.947525,352.764386 918.231937,351.783817 C919.516341,350.803247 920.635006,349.643153 921.587952,348.303502 C922.540905,346.963851 923.265963,345.493018 923.763147,343.89096 L923.763147,341.363589 C923.763147,338.684286 923.459315,336.170751 922.851638,333.822908 C922.24396,331.475065 921.346268,329.424186 920.15854,327.670209 C918.970805,325.916233 917.493069,324.53517 915.725283,323.526978 C913.95749,322.518787 911.913521,322.014699 909.593297,322.014699 C907.438806,322.014699 905.532943,322.491166 903.875636,323.444114 C902.218336,324.397062 900.816559,325.646924 899.67026,327.193738 C898.523962,328.740552 897.653889,330.515218 897.060022,332.51779 C896.466154,334.520362 896.169231,336.585052 896.169231,338.711921 C896.169231,340.700683 896.445443,342.661792 896.997874,344.59531 C897.550312,346.528828 898.378947,348.255157 899.483816,349.774349 C900.588678,351.293542 901.955934,352.522688 903.585614,353.461825 C905.215294,354.400962 907.093538,354.870524 909.220409,354.870524 L909.220409,354.870524 L909.220409,354.870524 Z M955.036263,347.992759 L957.977953,318.575817 L988.140677,318.575817 L988.140677,323.381965 L962.204054,323.381965 L960.132437,343.559502 C961.624003,342.5375 963.336521,341.729578 965.27004,341.135712 C967.203559,340.541846 969.275155,340.244917 971.484892,340.244917 C974.219434,340.244917 976.691538,340.721384 978.901276,341.674332 C981.111006,342.62728 982.989257,343.966911 984.53607,345.693266 C986.082884,347.419621 987.270598,349.477406 988.099248,351.866681 C988.927897,354.255956 989.342215,356.859261 989.342215,359.676672 C989.342215,362.466462 988.983137,365.076672 988.264973,367.50738 C987.54681,369.938087 986.448871,372.05802 984.971107,373.867239 C983.49335,375.67646 981.628909,377.10586 979.377749,378.155484 C977.126581,379.205108 974.468033,379.729912 971.402026,379.729912 C968.88845,379.729912 966.56136,379.357025 964.420679,378.61124 C962.279998,377.865454 960.401754,376.774414 958.785884,375.338087 C957.170014,373.901759 955.858004,372.147809 954.849819,370.076183 C953.841626,368.004557 953.199428,365.656749 952.923216,363.03269 L957.729361,363.03269 C957.977953,364.993829 958.461327,366.747779 959.179491,368.294593 C959.897654,369.841408 960.836776,371.153418 961.996892,372.230663 C963.157,373.307909 964.524249,374.129641 966.09869,374.695886 C967.673123,375.262131 969.440888,375.545248 971.402026,375.545248 C973.611756,375.545248 975.531437,375.14474 977.161117,374.343712 C978.790797,373.542682 980.144236,372.430926 981.221485,371.00841 C982.298727,369.585894 983.092842,367.914807 983.603843,365.9951 C984.114844,364.075394 984.370338,361.996893 984.370338,359.759537 C984.370338,357.660289 984.059597,355.699179 983.43811,353.876148 C982.816623,352.053117 981.912029,350.464895 980.724294,349.111432 C979.536566,347.75797 978.093351,346.694551 976.394615,345.921144 C974.695886,345.147737 972.769304,344.761039 970.614813,344.761039 C969.344211,344.761039 968.177216,344.843903 967.113777,345.009633 C966.050345,345.175363 965.055983,345.44467 964.130657,345.817563 C963.205324,346.190456 962.321449,346.646207 961.478989,347.184829 C960.636522,347.723452 959.800978,348.365647 958.972328,349.111432 L955.036263,347.992759 L955.036263,347.992759 Z M1047.83636,334.112934 C1047.83636,335.742613 1047.58086,337.275594 1047.06986,338.711921 C1046.55886,340.148249 1045.86142,341.453353 1044.97753,342.627275 C1044.09363,343.801196 1043.03712,344.836994 1041.80796,345.734698 C1040.57879,346.632403 1039.23225,347.371272 1037.76831,347.951327 C1039.42561,348.531382 1040.96549,349.290967 1042.38801,350.230105 C1043.81053,351.169242 1045.03967,352.274092 1046.07548,353.54469 C1047.11129,354.815287 1047.91922,356.237782 1048.49928,357.812218 C1049.07933,359.386654 1049.36936,361.085362 1049.36936,362.908392 C1049.36936,365.642939 1048.85836,368.0598 1047.83636,370.159048 C1046.81436,372.258296 1045.42639,374.012246 1043.67241,375.420951 C1041.91844,376.829657 1039.88136,377.899981 1037.56114,378.631956 C1035.24092,379.36393 1032.79644,379.729912 1030.22762,379.729912 C1027.63119,379.729912 1025.16599,379.370836 1022.83196,378.652672 C1020.49792,377.934508 1018.45395,376.864184 1016.69997,375.441668 C1014.94599,374.019151 1013.55803,372.258296 1012.53602,370.159048 C1011.51402,368.0598 1011.00303,365.642939 1011.00303,362.908392 C1011.00303,361.085362 1011.28615,359.386654 1011.8524,357.812218 C1012.41864,356.237782 1013.21275,354.822193 1014.23475,353.565406 C1015.25676,352.308619 1016.46518,351.203769 1017.86008,350.250821 C1019.25498,349.297873 1020.78105,348.531382 1022.43835,347.951327 C1020.9744,347.371272 1019.64167,346.632403 1018.44013,345.734698 C1017.23859,344.836994 1016.19588,343.801196 1015.31199,342.627275 C1014.4281,341.453353 1013.74447,340.148249 1013.26109,338.711921 C1012.77771,337.275594 1012.53602,335.742613 1012.53602,334.112934 C1012.53602,331.544118 1012.98487,329.251553 1013.88258,327.23517 C1014.78028,325.218788 1016.01633,323.506269 1017.59077,322.097564 C1019.1652,320.688857 1021.01583,319.611628 1023.1427,318.865843 C1025.26957,318.120057 1027.57595,317.74717 1030.0619,317.74717 C1032.52022,317.74717 1034.8335,318.120057 1037.00181,318.865843 C1039.17011,319.611628 1041.05526,320.688857 1042.65732,322.097564 C1044.25938,323.506269 1045.52305,325.218788 1046.44838,327.23517 C1047.3737,329.251553 1047.83636,331.544118 1047.83636,334.112934 L1047.83636,334.112934 L1047.83636,334.112934 Z M1044.39748,362.949825 C1044.39748,360.961064 1044.01078,359.165682 1043.23737,357.563624 C1042.46397,355.961566 1041.42126,354.608125 1040.10923,353.503257 C1038.7972,352.39839 1037.27803,351.549036 1035.55168,350.95517 C1033.82532,350.361304 1032.02303,350.064375 1030.14476,350.064375 C1028.23886,350.064375 1026.42277,350.361304 1024.69641,350.95517 C1022.97005,351.549036 1021.4647,352.39839 1020.18029,353.503257 C1018.89588,354.608125 1017.8739,355.961566 1017.11429,357.563624 C1016.3547,359.165682 1015.9749,360.961064 1015.9749,362.949825 C1015.9749,364.99383 1016.3547,366.803022 1017.11429,368.377458 C1017.8739,369.951894 1018.89588,371.270809 1020.18029,372.334244 C1021.4647,373.397679 1022.97005,374.198696 1024.69641,374.737318 C1026.42277,375.275941 1028.26648,375.545248 1030.22762,375.545248 C1032.13352,375.545248 1033.94271,375.269036 1035.65526,374.716602 C1037.3678,374.164168 1038.87316,373.356247 1040.17138,372.292812 C1041.4696,371.229377 1042.49849,369.917367 1043.25809,368.356742 C1044.01768,366.796117 1044.39748,364.99383 1044.39748,362.949825 L1044.39748,362.949825 L1044.39748,362.949825 Z M1042.86448,334.071502 C1042.86448,332.276093 1042.51921,330.632628 1041.82867,329.141057 C1041.13813,327.649486 1040.20591,326.372002 1039.03199,325.308567 C1037.85807,324.245133 1036.49772,323.4234 1034.95091,322.843345 C1033.40409,322.26329 1031.77444,321.973267 1030.0619,321.973267 C1028.32173,321.973267 1026.69208,322.256384 1025.17288,322.822629 C1023.65369,323.388874 1022.32096,324.18989 1021.17466,325.225703 C1020.02837,326.261516 1019.13067,327.532094 1018.48157,329.037476 C1017.83245,330.542858 1017.5079,332.22085 1017.5079,334.071502 C1017.5079,335.922155 1017.84626,337.572525 1018.523,339.022664 C1019.19973,340.472802 1020.11123,341.701948 1021.25753,342.710139 C1022.40383,343.718331 1023.74346,344.491726 1025.27646,345.030349 C1026.80947,345.568972 1028.43222,345.83828 1030.14476,345.83828 C1031.8573,345.83828 1033.48005,345.568972 1035.01305,345.030349 C1036.54606,344.491726 1037.8926,343.718331 1039.0527,342.710139 C1040.21282,341.701948 1041.13813,340.465897 1041.82867,339.001948 C1042.51921,337.537998 1042.86448,335.894533 1042.86448,334.071502 L1042.86448,334.071502 L1042.86448,334.071502 Z M1079.73096,346.045441 L1084.74426,346.045441 C1086.67778,346.017819 1088.50079,345.741606 1090.21333,345.216794 C1091.92587,344.691983 1093.42432,343.932398 1094.70874,342.938017 C1095.99314,341.943637 1097.00823,340.728301 1097.75401,339.291974 C1098.49979,337.855646 1098.87268,336.19837 1098.87268,334.320096 C1098.87268,332.358957 1098.56885,330.611911 1097.96117,329.078909 C1097.3535,327.545905 1096.49723,326.25461 1095.39236,325.204987 C1094.2875,324.155363 1092.95477,323.354346 1091.39415,322.801912 C1089.83353,322.249479 1088.10029,321.973267 1086.19439,321.973267 C1084.2885,321.973267 1082.53455,322.270195 1080.93249,322.864061 C1079.33043,323.457927 1077.94247,324.293471 1076.76854,325.370716 C1075.59462,326.447962 1074.66931,327.753067 1073.99258,329.28607 C1073.31585,330.819073 1072.96367,332.524686 1072.93605,334.40296 L1067.96417,334.40296 C1068.01942,332.027496 1068.5097,329.8247 1069.43502,327.794506 C1070.36035,325.764313 1071.62402,324.003457 1073.22608,322.511886 C1074.82813,321.020316 1076.734,319.853317 1078.94374,319.010856 C1081.15347,318.168395 1083.57034,317.74717 1086.19439,317.74717 C1088.76321,317.74717 1091.12483,318.126963 1093.27932,318.886559 C1095.43381,319.646155 1097.29134,320.737196 1098.85196,322.159712 C1100.41259,323.582228 1101.62793,325.329274 1102.49801,327.4009 C1103.36809,329.472526 1103.80313,331.834144 1103.80313,334.485825 C1103.80313,335.977396 1103.56144,337.406797 1103.07807,338.77407 C1102.59468,340.141343 1101.89725,341.411921 1100.98573,342.585843 C1100.07421,343.759764 1098.96937,344.809372 1097.67114,345.734698 C1096.37292,346.660024 1094.92281,347.412704 1093.32075,347.992759 C1097.0773,349.042384 1099.94991,350.844671 1101.93868,353.399677 C1103.92743,355.954682 1104.9218,358.999927 1104.9218,362.535502 C1104.9218,365.242427 1104.44534,367.659287 1103.49238,369.786157 C1102.53944,371.913027 1101.22743,373.708409 1099.55632,375.172357 C1097.8852,376.636306 1095.92409,377.761873 1093.67292,378.549091 C1091.42176,379.336309 1088.99799,379.729912 1086.40155,379.729912 C1083.74987,379.729912 1081.26396,379.336309 1078.94374,378.549091 C1076.62352,377.761873 1074.59335,376.629401 1072.85319,375.151642 C1071.11302,373.673881 1069.73196,371.871594 1068.70996,369.744724 C1067.68796,367.617855 1067.14934,365.214805 1067.09409,362.535502 L1072.02454,362.535502 C1072.07978,364.524263 1072.4803,366.319645 1073.22608,367.921702 C1073.97186,369.52376 1074.98694,370.891013 1076.27136,372.023502 C1077.55576,373.155991 1079.06112,374.02606 1080.78748,374.633738 C1082.51383,375.241414 1084.38517,375.545248 1086.40155,375.545248 C1088.36269,375.545248 1090.1788,375.269036 1091.84991,374.716602 C1093.52102,374.164168 1094.95732,373.349341 1096.15887,372.272096 C1097.36041,371.19485 1098.29953,369.855219 1098.97626,368.253161 C1099.65299,366.651104 1099.99135,364.800479 1099.99135,362.701231 C1099.99135,360.491497 1099.58394,358.606345 1098.7691,357.04572 C1097.95426,355.485096 1096.85632,354.207612 1095.47523,353.213231 C1094.09415,352.218851 1092.4783,351.486887 1090.62765,351.017318 C1088.777,350.54775 1086.81589,350.299158 1084.74426,350.271537 L1079.73096,350.271537 L1079.73096,346.045441 L1079.73096,346.045441 Z" id="0104-7364-5345-9583" fill="#FFFFFF"></path>
            <g id="Group-6" transform="translate(4.021390, 0.000000)">
                <g id="Group-4" transform="translate(999.978610, 19.000000)" stroke="#FFFFFF" stroke-width="12">
                    <path d="M90.0090536,0.21256651 C115.102669,43.6759832 115.102669,97.2251209 90.0090536,140.688538 M59.1043398,15.6649233 C78.67736,49.5663883 78.67736,91.334716 59.1043398,125.236181 M29.6043859,29.8529964 C43.7571849,54.6271439 43.7571849,85.1501527 29.6043859,109.9243 M0.10443198,45.1648772 C10.328947,60.6390803 10.328947,80.2620239 0.10443198,95.7362269" id="Shape"></path>
                </g>
                <g id="Group" fill="#FFFFFF">
                    <path d="M68.6273138,8.52651283e-14 L123.562275,3.17456972e-12 L123.562275,12.9640529 L123.562275,178.969237 L55.663364,178.969237 L55.663364,8.52651283e-14 L68.6273138,8.52651283e-14 Z M110.597364,12.964 L68.626364,12.964 L68.626364,166.005 L110.597364,166.005 L110.597364,12.964 Z" id="Combined-Shape"></path>
                    <path d="M68.6273138,3.41060513e-13 L123.562275,1.42558541e-11 L123.562275,12.9640529 L123.562275,178.969237 L55.663364,178.969237 L55.663364,3.41060513e-13 L68.6273138,3.41060513e-13 Z M110.597364,12.964 L68.626364,12.964 L68.626364,166.005 L110.597364,166.005 L110.597364,12.964 Z" id="Combined-Shape" transform="translate(89.612819, 89.484618) rotate(-270.000000) translate(-89.612819, -89.484618) "></path>
                    <polygon id="Rectangle-9" transform="translate(89.928722, 145.226153) rotate(-315.000000) translate(-89.928722, -145.226153) " points="87.0538251 115.044221 92.803618 115.044221 92.803618 175.408085 87.0538251 175.408085"></polygon>
                    <polygon id="Rectangle-9-Copy-3" transform="translate(146.164506, 90.257095) rotate(-315.000000) translate(-146.164506, -90.257095) " points="143.289609 58.9827159 149.039402 58.9827159 149.039402 121.531475 143.289609 121.531475"></polygon>
                    <polygon id="Rectangle-9-Copy-6" transform="translate(89.321428, 89.796452) rotate(-315.000000) translate(-89.321428, -89.796452) " points="86.4465317 58.5220728 92.1963246 58.5220728 92.1963246 121.070832 86.4465317 121.070832"></polygon>
                    <polygon id="Rectangle-9-Copy-7" transform="translate(32.769742, 89.023975) rotate(-315.000000) translate(-32.769742, -89.023975) " points="29.8948454 57.7495959 35.6446383 57.7495959 35.6446383 120.298355 29.8948454 120.298355"></polygon>
                    <polygon id="Rectangle-9-Copy-5" transform="translate(89.612819, 33.602411) rotate(-315.000000) translate(-89.612819, -33.602411) " points="86.737923 2.32803192 92.487716 2.32803192 92.487716 64.8767907 86.737923 64.8767907"></polygon>
                </g>
            </g>
        </g>
    </g>
</svg>