<?xml version="1.0" encoding="UTF-8"?>
<svg width="725px" height="150px" viewBox="0 0 725 150" version="1.1" xmlns="http://www.w3.org/2000/svg" xmlns:xlink="http://www.w3.org/1999/xlink">
    <!-- Generator: Sketch 3.6.1 (26313) - http://www.bohemiancoding.com/sketch -->
    <title>cryptovalley</title>
    <desc>Created with Sketch.</desc>
    <defs></defs>
    <g id="Page-1" stroke="none" stroke-width="1" fill="none" fill-rule="evenodd">
        <g id="cryptovalley">
            <g transform="translate(3.000000, 3.000000)">
                <g id="Layer_1" fill="#111111">
                    <path d="M14.84,72 C14.837,65.128 16.073,58.313 18.49,51.88 L5.89,44.6 C-2.031,63.712 -1.302,85.316 7.89,103.85 L20.38,96.64 C16.716,88.944 14.823,80.524 14.84,72 L14.84,72 Z" id="Shape" opacity="0.9"></path>
                    <g id="Group" transform="translate(176.824562, 0.105265)">
                        <path d="M0.93,37 C0.93,15.353 11.083,4.53 31.39,4.53 C35.742,4.516 40.073,5.129 44.25,6.35 C48.383,7.57 50.45,9.09 50.45,10.91 C50.45,12.243 49.737,14.007 48.31,16.2 C46.883,18.393 45.62,19.487 44.52,19.48 C43.858,19.308 43.218,19.063 42.61,18.75 C38.983,17.198 35.063,16.451 31.12,16.56 C20.6,16.56 15.34,23.447 15.34,37.22 C15.34,50.993 20.54,57.88 30.94,57.88 C35.285,57.886 39.58,56.951 43.53,55.14 C44.281,54.744 45.077,54.438 45.9,54.23 C47.18,54.23 48.397,55.28 49.55,57.38 C50.483,58.824 51.075,60.463 51.28,62.17 C51.28,64.603 49.03,66.49 44.53,67.83 C40.121,69.151 35.543,69.825 30.94,69.83 C20.727,69.83 13.173,67.163 8.28,61.83 C3.387,56.497 0.937,48.22 0.93,37 L0.93,37 Z" id="Shape"></path>
                        <path d="M58.94,66.36 L58.94,37.45 C59.028,34.247 58.844,31.042 58.39,27.87 C58.14,26.789 57.957,25.693 57.84,24.59 C57.84,23.617 59.073,22.887 61.54,22.4 C63.355,21.994 65.202,21.75 67.06,21.67 C67.884,21.598 68.713,21.722 69.48,22.03 C69.92,22.301 70.268,22.698 70.48,23.17 C70.72,23.69 70.91,24.11 71.03,24.45 C71.206,25.003 71.343,25.568 71.44,26.14 C71.59,26.93 71.7,27.42 71.76,27.6 C74.313,22.98 77.627,20.67 81.7,20.67 C83.647,20.67 85,21.17 85.76,22.17 C86.511,23.151 86.913,24.355 86.9,25.59 C86.843,27.216 86.568,28.827 86.08,30.38 C85.533,32.293 84.867,33.25 84.08,33.25 C83.429,33.201 82.785,33.081 82.16,32.89 C81.389,32.667 80.592,32.542 79.79,32.52 C76.75,32.52 74.32,34.04 72.5,37.08 L72.5,66.35 C72.5,68.297 70.677,69.27 67.03,69.27 L64.48,69.27 C60.787,69.27 58.94,68.3 58.94,66.36 L58.94,66.36 Z" id="Shape"></path>
                        <path d="M87.57,23.22 C87.57,21.887 89.423,21.22 93.13,21.22 L96.05,21.22 C99.03,21.22 100.733,21.86 101.16,23.14 L106.54,40 C107.087,41.7 107.937,45.367 109.09,51 L109.45,51 C110.67,45.16 111.52,41.493 112,40 L117.38,23.13 C117.807,21.857 119.51,21.217 122.49,21.21 L124.68,21.21 C128.327,21.21 130.15,21.877 130.15,23.21 C130.13,23.766 130.039,24.317 129.88,24.85 L109,86 C108.513,87.273 106.81,87.913 103.89,87.92 L102.34,87.92 C98.693,87.92 96.87,87.28 96.87,86 C96.873,85.434 96.995,84.875 97.23,84.36 L103,69.09 L88,24.86 C87.801,24.33 87.656,23.78 87.57,23.22 L87.57,23.22 Z" id="Shape"></path>
                        <path d="M136.91,85 L136.91,37.45 C136.999,34.247 136.815,31.042 136.36,27.87 C136.11,26.789 135.926,25.694 135.81,24.59 C135.81,23.617 137.04,22.887 139.5,22.4 C141.315,21.994 143.162,21.75 145.02,21.67 C145.844,21.598 146.673,21.722 147.44,22.03 C147.879,22.302 148.227,22.699 148.44,23.17 C148.647,23.6 148.831,24.04 148.99,24.49 C149.155,25.029 149.292,25.576 149.4,26.13 C149.553,26.857 149.66,27.313 149.72,27.5 C150.865,25.443 152.553,23.741 154.6,22.58 C156.826,21.283 159.364,20.619 161.94,20.66 C166.987,20.66 171.09,22.833 174.25,27.18 C177.41,31.527 178.99,37.527 178.99,45.18 C178.99,52.813 177.303,58.833 173.93,63.24 C170.557,67.647 165.83,69.85 159.75,69.85 C156.426,69.93 153.165,68.938 150.45,67.02 L150.45,85.02 C150.45,86.967 148.627,87.94 144.98,87.94 L142.43,87.94 C138.75,87.9 136.91,86.92 136.91,85 L136.91,85 Z M156.79,59.19 C162.443,59.19 165.27,54.613 165.27,45.46 C165.27,36.307 162.81,31.72 157.89,31.7 C154.97,31.7 152.477,33.493 150.41,37.08 L150.41,57.42 C152.351,58.54 154.549,59.136 156.79,59.15 L156.79,59.19 Z" id="Shape"></path>
                        <path d="M206.59,59.15 L209.05,58.78 C209.837,58.78 210.503,59.677 211.05,61.47 C211.49,62.723 211.765,64.027 211.87,65.35 C211.87,68.33 208.953,69.82 203.12,69.82 C194.24,69.82 189.8,64.897 189.8,55.05 L189.8,32.05 L188.34,32.05 C186.513,32.05 185.6,30.53 185.6,27.49 L185.6,26 C185.6,22.96 186.513,21.44 188.34,21.44 L189.8,21.44 L191,12.73 C191.307,10.783 192.95,9.81 195.93,9.81 L198.76,9.81 C201.8,9.81 203.32,10.783 203.32,12.73 L203.32,21.39 L207.79,21.39 C209.617,21.39 210.53,22.91 210.53,25.95 L210.53,27.5 C210.53,30.54 209.617,32.06 207.79,32.06 L203.3,32.06 L203.3,55.23 C203.3,57.843 204.397,59.15 206.59,59.15 L206.59,59.15 Z" id="Shape"></path>
                        <path d="M223.46,63.48 C219.693,59.253 217.81,53.157 217.81,45.19 C217.81,37.223 219.693,31.16 223.46,27 C227.227,22.807 232.73,20.71 239.97,20.71 C247.21,20.71 252.697,22.807 256.43,27 C260.143,31.167 262,37.233 262,45.2 C262,53.167 260.13,59.263 256.39,63.49 C252.65,67.717 247.163,69.83 239.93,69.83 C232.697,69.83 227.207,67.713 223.46,63.48 L223.46,63.48 Z M231.46,45.24 C231.46,54.513 234.273,59.15 239.9,59.15 C245.527,59.15 248.34,54.513 248.34,45.24 C248.34,35.967 245.527,31.33 239.9,31.33 C234.273,31.33 231.47,35.967 231.49,45.24 L231.46,45.24 Z" id="Shape"></path>
                        <path d="M288.21,7.08 C288.21,5.747 290.063,5.08 293.77,5.08 L296.77,5.08 C299.81,5.08 301.603,5.96 302.15,7.72 L315.48,50.4 L315.85,50.4 L329.53,7.72 C330.137,5.96 331.93,5.08 334.91,5.08 L337.74,5.08 C341.387,5.08 343.21,5.747 343.21,7.08 C343.199,7.637 343.108,8.189 342.94,8.72 L323.24,67.36 C322.813,68.633 321.11,69.273 318.13,69.28 L313.39,69.28 C310.41,69.28 308.707,68.64 308.28,67.36 L288.58,8.72 C288.401,8.188 288.276,7.638 288.21,7.08 L288.21,7.08 Z" id="Shape"></path>
                        <path d="M347.85,56.51 C347.837,54.948 347.991,53.389 348.31,51.86 C348.719,50.237 349.431,48.707 350.41,47.35 C351.539,45.694 353.039,44.324 354.79,43.35 C359.103,40.797 365.517,39.52 374.03,39.52 L374.03,36.52 C374.03,33.053 371.66,31.32 366.92,31.32 C363.545,31.325 360.213,32.073 357.16,33.51 C356.549,33.824 355.905,34.069 355.24,34.24 C354.327,34.24 353.31,33.297 352.19,31.41 C351.271,30.102 350.69,28.587 350.5,27 C350.5,25.36 352.187,23.9 355.56,22.62 C359.531,21.243 363.718,20.593 367.92,20.7 C380.993,20.7 387.53,25.777 387.53,35.93 L387.53,53 C387.494,56.169 387.678,59.336 388.08,62.48 L388.63,66.22 C388.63,67.193 387.4,67.923 384.94,68.41 C383.125,68.817 381.278,69.061 379.42,69.14 C378.596,69.212 377.767,69.089 377,68.78 C376.543,68.488 376.193,68.057 376,67.55 C375.76,66.97 375.57,66.55 375.45,66.18 C375.269,65.598 375.132,65.003 375.04,64.4 C374.89,63.55 374.78,63.03 374.72,62.85 C373.373,65.02 371.404,66.734 369.07,67.77 C366.678,69.032 364.024,69.717 361.32,69.77 C356.653,69.77 353.233,68.553 351.06,66.12 C348.887,63.687 347.817,60.483 347.85,56.51 L347.85,56.51 Z M361.26,55.14 C361.212,56.24 361.647,57.306 362.45,58.06 C363.456,58.861 364.728,59.25 366.01,59.15 C367.695,59.113 369.325,58.539 370.66,57.51 C372.132,56.472 373.296,55.055 374.03,53.41 L374.03,48.41 C365.517,48.397 361.26,50.64 361.26,55.14 L361.26,55.14 Z" id="Shape"></path>
                        <path d="M416.25,59.15 L418.71,58.78 C419.497,58.78 420.163,59.677 420.71,61.47 C421.149,62.723 421.425,64.027 421.53,65.35 C421.53,68.33 418.61,69.82 412.77,69.82 C403.89,69.82 399.45,64.897 399.45,55.05 L399.45,3.25 C399.45,1.303 401.273,0.33 404.92,0.33 L407.47,0.33 C411.117,0.33 412.94,1.303 412.94,3.25 L412.94,55.25 C412.98,57.85 414.083,59.15 416.25,59.15 L416.25,59.15 Z" id="Shape"></path>
                        <path d="M443.34,59.15 L445.8,58.78 C446.587,58.78 447.253,59.677 447.8,61.47 C448.24,62.723 448.515,64.027 448.62,65.35 C448.62,68.33 445.7,69.82 439.86,69.82 C430.98,69.82 426.543,64.897 426.55,55.05 L426.55,3.25 C426.55,1.303 428.373,0.33 432.02,0.33 L434.57,0.33 C438.217,0.33 440.04,1.303 440.04,3.25 L440.04,55.25 C440.053,57.85 441.153,59.15 443.34,59.15 L443.34,59.15 Z" id="Shape"></path>
                        <path d="M457.61,63.39 C453.69,59.103 451.73,52.917 451.73,44.83 C451.73,36.743 453.69,30.693 457.61,26.68 C461.53,22.68 466.91,20.68 473.75,20.68 C480.59,20.68 485.59,22.87 488.75,27.25 C491.943,31.63 493.54,37.297 493.54,44.25 C493.54,44.977 492.917,46.057 491.67,47.49 C490.423,48.923 489.497,49.637 488.89,49.63 L465.68,49.63 C465.98,53.097 467.013,55.56 468.78,57.02 C470.697,58.532 473.091,59.309 475.53,59.21 C478.207,59.221 480.864,58.743 483.37,57.8 C485.863,56.86 487.14,56.39 487.2,56.39 C488.113,56.39 489.13,57.287 490.25,59.08 C491.168,60.325 491.75,61.785 491.94,63.32 C491.94,65.32 490.04,66.917 486.24,68.11 C482.78,69.24 479.169,69.84 475.53,69.89 C467.503,69.843 461.53,67.677 457.61,63.39 L457.61,63.39 Z M480.46,40.54 C480.575,38.195 480.005,35.867 478.82,33.84 C477.748,32.178 475.865,31.219 473.89,31.33 C469.39,31.33 466.653,34.4 465.68,40.54 L480.46,40.54 Z" id="Shape"></path>
                        <path d="M498,23.22 C498,21.887 499.853,21.22 503.56,21.22 L506.48,21.22 C509.46,21.22 511.163,21.86 511.59,23.14 L516.93,40 C517.477,41.7 518.327,45.367 519.48,51 L519.84,51 C521.06,45.16 521.91,41.493 522.39,40 L527.77,23.13 C528.197,21.857 529.9,21.217 532.88,21.21 L535.07,21.21 C538.717,21.21 540.54,21.877 540.54,23.21 C540.52,23.766 540.429,24.317 540.27,24.85 L519.4,86 C518.913,87.273 517.21,87.913 514.29,87.92 L512.74,87.92 C509.093,87.92 507.27,87.28 507.27,86 C507.273,85.434 507.395,84.875 507.63,84.36 L513.38,69.13 L498.38,24.9 C498.195,24.355 498.067,23.792 498,23.22 L498,23.22 Z" id="Shape"></path>
                    </g>
                    <path d="M64.91,15.08 L64.91,0.57 C43.374,2.809 23.995,14.639 12.16,32.77 L24.63,40 C33.85,26.289 48.525,17.21 64.91,15.08 L64.91,15.08 Z" id="Shape" opacity="0.9"></path>
                    <path d="M78.29,129.09 L78.29,143.54 C98.388,141.836 116.841,131.753 129.13,115.76 L116.54,108.49 C106.983,120.105 93.247,127.503 78.29,129.09 L78.29,129.09 Z" id="Shape" opacity="0.9"></path>
                    <path d="M129.17,71 C129.177,79.748 127.172,88.381 123.31,96.23 L135.79,103.44 C145.373,84.586 146.138,62.461 137.88,42.99 L125.28,50.26 C127.854,56.872 129.173,63.905 129.17,71 L129.17,71 Z" id="Shape" opacity="0.9"></path>
                    <path d="M119.49,39.44 L132,32.22 C119.867,14.009 100.095,2.321 78.29,0.47 L78.29,14.91 C94.943,16.689 109.989,25.648 119.49,39.44 L119.49,39.44 Z" id="Shape" opacity="0.9"></path>
                    <path d="M27.56,108 L15,115.24 C27.008,131.168 45.099,141.384 64.94,143.44 L64.94,128.92 C50.247,127.033 36.852,119.537 27.56,108 L27.56,108 Z" id="Shape" opacity="0.9"></path>
                    <path d="M74,95.57 C63.306,95.576 53.941,88.396 51.172,78.067 C48.403,67.737 52.919,56.836 62.182,51.491 C71.445,46.147 83.143,47.693 90.7,55.26 L99.39,46.57 C85.473,32.642 62.936,32.518 48.866,46.292 C34.797,60.066 34.443,82.601 48.073,96.81 C61.702,111.02 84.232,111.604 98.58,98.12 L89.89,89.43 C85.546,93.389 79.878,95.58 74,95.57 L74,95.57 Z" id="Shape" opacity="0.9"></path>
                </g>
                <path d="M185.002,141.111 L189.314,141.111 L189.314,115.974 L195.292,131.262 L198.526,131.262 L204.504,115.974 L204.504,141.111 L208.816,141.111 L208.816,106.811 L204.21,106.811 L196.909,125.823 L189.608,106.811 L185.002,106.811 L185.002,141.111 Z M239.343,127.93 C239.343,124.549 238.314,121.707 236.256,119.453 C234.198,117.15 231.307,116.023 227.632,116.023 C224.055,116.023 221.164,117.248 219.008,119.698 C216.901,122.148 215.823,125.186 215.823,128.763 C215.823,132.438 216.901,135.476 219.057,137.877 C221.262,140.278 224.104,141.503 227.632,141.503 C232.728,141.503 236.452,139.2 238.853,134.594 L235.57,132.879 C233.806,136.162 231.16,137.779 227.632,137.779 C223.271,137.779 220.282,134.545 220.037,129.645 L239.343,129.645 L239.343,127.93 Z M227.632,119.747 C231.601,119.747 234.247,122.001 234.982,125.921 L220.331,125.921 C221.164,122.05 223.761,119.747 227.632,119.747 L227.632,119.747 Z M271.291,122.687 C271.291,118.179 269.184,116.023 265.901,116.023 C263.353,116.023 261.148,117.64 259.825,120.041 C259.09,117.346 257.375,116.023 254.729,116.023 C252.328,116.023 250.417,117.199 248.947,119.551 L248.947,116.415 L244.831,116.415 L244.831,141.111 L248.947,141.111 L248.947,129.498 C248.947,122.981 250.76,119.796 253.308,119.796 C255.219,119.796 256.003,120.874 256.003,123.569 L256.003,141.111 L260.119,141.111 L260.119,129.498 C260.119,122.981 261.932,119.796 264.48,119.796 C266.391,119.796 267.175,120.874 267.175,123.569 L267.175,141.111 L271.291,141.111 L271.291,122.687 Z M289.421,141.503 C296.526,141.503 300.74,136.456 300.74,128.763 C300.74,121.07 296.526,116.023 289.421,116.023 C286.138,116.023 283.394,117.542 281.875,119.551 L281.875,106.419 L277.759,106.419 L277.759,141.111 L281.875,141.111 L281.875,137.828 C283.394,139.935 286.236,141.503 289.421,141.503 L289.421,141.503 Z M294.517,135.28 C293.194,136.946 291.332,137.779 289.029,137.779 C286.726,137.779 284.864,136.946 283.541,135.28 C282.218,133.614 281.532,131.458 281.532,128.763 C281.532,126.068 282.218,123.912 283.541,122.246 C284.864,120.58 286.726,119.747 289.029,119.747 C291.332,119.747 293.194,120.58 294.517,122.246 C295.84,123.912 296.526,126.068 296.526,128.763 C296.526,131.458 295.84,133.614 294.517,135.28 L294.517,135.28 Z M330.483,127.93 C330.483,124.549 329.454,121.707 327.396,119.453 C325.338,117.15 322.447,116.023 318.772,116.023 C315.195,116.023 312.304,117.248 310.148,119.698 C308.041,122.148 306.963,125.186 306.963,128.763 C306.963,132.438 308.041,135.476 310.197,137.877 C312.402,140.278 315.244,141.503 318.772,141.503 C323.868,141.503 327.592,139.2 329.993,134.594 L326.71,132.879 C324.946,136.162 322.3,137.779 318.772,137.779 C314.411,137.779 311.422,134.545 311.177,129.645 L330.483,129.645 L330.483,127.93 Z M318.772,119.747 C322.741,119.747 325.387,122.001 326.122,125.921 L311.471,125.921 C312.304,122.05 314.901,119.747 318.772,119.747 L318.772,119.747 Z M361.01,124.255 C360.765,118.963 357.776,116.023 352.876,116.023 C348.907,116.023 345.869,117.689 343.762,120.972 L343.762,116.415 L339.646,116.415 L339.646,141.111 L343.762,141.111 L343.762,132.193 C343.762,128.224 344.595,125.186 346.212,123.03 C347.829,120.825 349.838,119.747 352.141,119.747 C354.934,119.747 356.551,121.266 356.894,124.255 L361.01,124.255 Z" id="Member" fill="#000000"></path>
            </g>
        </g>
    </g>
</svg>