<?xml version="1.0" encoding="UTF-8"?>
<svg width="512px" height="512px" viewBox="0 0 512 512" version="1.1" xmlns="http://www.w3.org/2000/svg" xmlns:xlink="http://www.w3.org/1999/xlink">
    <!-- Generator: Sketch 3.6.1 (26313) - http://www.bohemiancoding.com/sketch -->
    <title>swisscard-brand</title>
    <desc>Created with Sketch.</desc>
    <defs></defs>
    <g id="Page-1" stroke="none" stroke-width="1" fill="none" fill-rule="evenodd">
        <g id="swisscard-brand" fill="#111111">
            <path d="M199.555589,49.1260651 L199.555589,463.790582 L313.275648,463.790582 L313.275648,49.1260651 L199.555589,49.1260651 Z M182.3181,14 L164.429803,14 L164.429803,481.353615 L164.429803,498.916647 L328.862761,498.916647 L348.401713,498.916647 L348.401713,14 L330.838681,14 L182.3181,14 Z" id="Combined-Shape"></path>
            <path d="M199.555589,49.1260651 L199.555589,463.790582 L313.275648,463.790582 L313.275648,49.1260651 L199.555589,49.1260651 Z M182.3181,14 L164.429803,14 L164.429803,481.353615 L164.429803,498.916647 L328.862761,498.916647 L348.401713,498.916647 L348.401713,14 L330.838681,14 L182.3181,14 Z" id="Combined-Shape" transform="translate(256.415758, 256.458324) rotate(-270.000000) translate(-256.415758, -256.458324) "></path>
            <rect id="Rectangle-9" transform="translate(257.271694, 407.489855) rotate(-315.000000) translate(-257.271694, -407.489855) " x="249.48217" y="325.711994" width="15.579048" height="163.555722"></rect>
            <rect id="Rectangle-9-Copy-3" transform="translate(409.642394, 258.551348) rotate(-315.000000) translate(-409.642394, -258.551348) " x="401.85287" y="173.813504" width="15.579048" height="169.475687"></rect>
            <rect id="Rectangle-9-Copy-6" transform="translate(255.626234, 257.303236) rotate(-315.000000) translate(-255.626234, -257.303236) " x="247.83671" y="172.565393" width="15.579048" height="169.475687"></rect>
            <rect id="Rectangle-9-Copy-7" transform="translate(102.399598, 255.210212) rotate(-315.000000) translate(-102.399598, -255.210212) " x="94.6100741" y="170.472369" width="15.579048" height="169.475687"></rect>
            <rect id="Rectangle-9-Copy-5" transform="translate(256.415758, 105.045640) rotate(-315.000000) translate(-256.415758, -105.045640) " x="248.626234" y="20.307796" width="15.579048" height="169.475687"></rect>
        </g>
    </g>
</svg>